<?xml version="1.0" encoding="utf-8"?>
<!-- Generator: Adobe Illustrator 19.2.1, SVG Export Plug-In . SVG Version: 6.00 Build 0)  -->
<svg version="1.1" id="Layer_1" xmlns="http://www.w3.org/2000/svg" xmlns:xlink="http://www.w3.org/1999/xlink" x="0px" y="0px"
	 viewBox="0 0 461.3 261.4" style="enable-background:new 0 0 461.3 261.4;" xml:space="preserve">
<style type="text/css">
	.st0{fill:#B3B4B4;}
	.st1{fill:#FFFFFF;}
</style>
<path class="st0" d="M378.5,135.8c-0.1-0.3-0.1-0.7-0.1-1c-0.1-2.4-0.4-4.7-3.6-5.6h0.2c2.1-0.7,3.2-1.9,3.2-3.6
	c0-1.3-0.6-2.5-1.7-3.2c-1.2-0.6-2.5-0.9-3.9-0.8h-5.4v0.5h0.1l1.4,0.2c0.1,0.4,0.1,0.9,0.1,1.3v11.2c0,0.4,0,0.9-0.1,1.3l-1.4,0.2
	h-0.1v0.6h5.2v-0.5h-0.5l-1.1-0.2c-0.1-0.4-0.1-0.9-0.1-1.3v-5.1h1.3c1.7,0,2.4,0.2,3.2,1s1.1,1.3,1.2,4.2v1.9h3.6v-0.6h-0.1
	l-1.4-0.2l0,0L378.5,135.8z M376.3,125.4c0.1,1.8-1.3,3.2-3.1,3.3c-0.1,0-0.2,0-0.3,0h-2.2v-5.2c0-0.4,0-0.9,0.1-1.3
	c0-0.1,0.2-0.2,1.3-0.2c1-0.1,2,0.1,2.9,0.7C375.9,123.4,376.3,124.4,376.3,125.4L376.3,125.4L376.3,125.4z"/>
<path class="st0" d="M383.3,126.9c-2.7,0-4.5,2-4.5,4.9s1.8,4.9,4.5,4.9s4.5-2,4.5-4.9S386,126.9,383.3,126.9L383.3,126.9z
	 M383.3,136.2c-1.7,0-2.7-1.6-2.7-4.4s1-4.4,2.7-4.4s2.7,1.6,2.7,4.4S385,136.2,383.3,136.2L383.3,136.2z"/>
<path class="st0" d="M392.6,127.1c-0.9,0-1.7,0.3-2.5,0.7v-3.2c0-1.2,0.1-2.3,0.2-3.5h-0.1l-3.2,0.4v0.5h1.4
	c0.1,0.5,0.1,1.1,0.1,1.6v13.2h0.3l0.3-0.4l0.3-0.4c0.9,0.4,1.8,0.7,2.8,0.7c2.6,0.1,4.7-2,4.8-4.6c0-0.1,0-0.2,0-0.3
	C397,129,395.2,127,392.6,127.1L392.6,127.1L392.6,127.1z M390.1,128.5c0.6-0.4,1.2-0.6,1.9-0.6c1.9,0,3.3,1.7,3.3,4.1
	s-1.8,4.2-3.4,4.2c-0.7,0-1.3-0.2-1.8-0.6v-7.2l0,0V128.5z"/>
<path class="st0" d="M420.6,135.8c-0.1-0.3-0.1-0.7-0.1-1c-0.1-2.4-0.5-4.7-3.8-5.6h0.3c2.2-0.7,3.4-1.9,3.4-3.6
	c0-1.3-0.7-2.5-1.8-3.2c-1.2-0.6-2.6-0.9-4-0.8h-5.7v0.5h0.1h1.2c0.1,0.4,0.1,0.9,0.1,1.3v11.2c0,0.4,0,0.9-0.1,1.3l-1.4,0.2h-0.1
	v0.6h5.4v-0.5h-0.5l-1.2-0.2c-0.1-0.4-0.1-0.9-0.1-1.3v-5.1h1.4c1.8,0,2.5,0.2,3.4,1s1.2,1.3,1.2,4.2v1.9h3.7v-0.6h-0.1L420.6,135.8
	L420.6,135.8L420.6,135.8z M418.2,125.4c0,1.8-1.5,3.3-3.3,3.3c-0.1,0-0.2,0-0.3,0h-2.3v-5.2c0-0.4,0-0.9,0.1-1.3
	c0-0.1,0.2-0.2,1.3-0.2c1.1-0.1,2.2,0.1,3.1,0.7C417.7,123.3,418.2,124.4,418.2,125.4L418.2,125.4L418.2,125.4z"/>
<path class="st0" d="M435.4,127.1c-0.9,0-1.8,0.3-2.5,0.8h-0.1l-0.6,0.3l0,0v-1.1h-3.1l-0.2,0.6h1.6c0.1,0.4,0.1,0.8,0.1,1.2v10.4
	c0.1,0.4,0,0.8-0.1,1.2c-0.4,0.2-0.9,0.2-1.3,0.2h-0.1v0.6h5.1v-0.5h-0.1l-1.7-0.2c-0.1-0.2-0.2-0.5-0.1-0.7v-3.8
	c0.6,0.3,1.3,0.4,2,0.4c2.7,0,4.9-2.2,4.9-4.9c0-0.1,0-0.1,0-0.2c0-2.6-1.6-4.4-3.9-4.4l0,0L435.4,127.1z M437.5,131.8
	c0,2.4-1.4,4.1-3.2,4.1c-0.8,0-1.5-0.3-2-0.8v-6.3c0.6-0.5,1.4-0.8,2.2-0.8C436.2,128,437.5,129.6,437.5,131.8L437.5,131.8
	L437.5,131.8z"/>
<path class="st0" d="M444.4,126.9c-2.7,0-4.5,2-4.5,4.9s1.8,4.9,4.5,4.9s4.5-2,4.5-4.9S447.1,126.9,444.4,126.9L444.4,126.9z
	 M444.4,136.2c-1.7,0-2.7-1.6-2.7-4.4s1-4.4,2.7-4.4s2.7,1.6,2.7,4.4S446.1,136.2,444.4,136.2L444.4,136.2z"/>
<path class="st0" d="M401.9,127.1c-0.9,0-1.7,0.3-2.5,0.7v-3.2c0-1.2,0.1-2.3,0.2-3.5h-0.1l-3.2,0.4v0.5h1.4
	c0.1,0.5,0.1,1.1,0.1,1.6v13.2h0.3l0.3-0.4l0.4-0.4c0.9,0.4,1.8,0.7,2.8,0.7c2.6,0.1,4.7-2,4.8-4.6c0-0.1,0-0.2,0-0.3
	C406.4,129,404.6,127,401.9,127.1L401.9,127.1L401.9,127.1z M399.4,128.5c0.6-0.4,1.2-0.6,1.9-0.6c1.9,0,3.3,1.7,3.3,4.1
	s-1.8,4.2-3.4,4.2c-0.7,0-1.3-0.2-1.8-0.6v-7.2l0,0V128.5z"/>
<path class="st0" d="M429.7,134.7L429.7,134.7l-0.3-0.4h-0.1c-0.7,0.9-1.8,1.5-3,1.5c-2.6,0-3.5-2.1-3.5-3.9c0-0.2,0-0.5,0-0.7h7
	c-0.2-2.2-1.9-3.9-4.1-4.1c-2.7,0.1-4.8,2.4-4.7,5.1c0,0,0,0,0,0c-0.2,2.4,1.7,4.5,4.1,4.7c0.1,0,0.3,0,0.4,0
	C427.2,136.8,428.7,136,429.7,134.7L429.7,134.7z M425.7,127.6c0.6,0,1.1,0.3,1.5,0.7c0.5,0.6,0.8,1.3,0.8,2.1v0.2h-5.1
	C423.2,128.7,424.3,127.6,425.7,127.6L425.7,127.6L425.7,127.6z"/>
<path class="st0" d="M453.6,126.9c-0.7,0-1.6,0.3-2.4,2.5v-2.3h-2.8l-0.2,0.6h1.4c0.1,0.4,0.1,0.8,0.1,1.2v5.5
	c0.1,0.4,0,0.8-0.1,1.2c-0.4,0.2-0.8,0.3-1.2,0.2h-0.1v0.5h4.9v-0.5h-0.1l-1.6-0.2c0-0.2,0-0.4,0-0.6v-4.2c0-1.2,0.8-2.8,1.5-2.8
	c0.3,0,0.5,0.2,0.7,0.4c0.1,0.2,0.4,0.4,0.7,0.4c0.4-0.1,0.8-0.4,1-0.8c-0.2-0.8-0.9-1.3-1.7-1.3l0,0L453.6,126.9z"/>
<path class="st0" d="M461.2,135.1L461.2,135.1c-0.7,0.3-1.3,0.5-1.9,0.5c-1.2,0-1.2-0.5-1.2-3v-2.3c0-0.6,0-1.8,0.1-2.6h2.6l0.2-0.7
	h-2.9v-2.6c0-0.1-0.1-0.2-0.2-0.2l0,0h-0.2l-2.4,3.2h-0.1c0,0.1,0.1,0.1,0.2,0.1h0.8c0.1,0.6,0.2,1.1,0.1,1.7v5.2c0,1.4,0.5,2,1.7,2
	c1.1-0.1,2.2-0.5,3.2-1.1l0,0L461.2,135.1L461.2,135.1L461.2,135.1z"/>
<path class="st0" d="M428.4,15.3c0.6-0.5,0.9-1.2,0.8-2c-0.1-1.1-1-2-2.1-2H416v0.2c0,0,1.5-0.1,1.5,1l-3.3,6.8l-3.3-6.8
	c0-1.1,1.5-1,1.5-1v-0.2h-11.1c-1.1,0-2,0.9-2.1,2c-0.1,0.8,0.2,1.5,0.8,2c-1,0.4-1.6,1.4-1.5,2.4c0,1.4,1.1,2.6,2.5,2.8h12l1.2,2.6
	l1.2-2.5h12c1.4-0.2,2.5-1.4,2.5-2.8c0.1-1-0.5-2-1.5-2.4 M401.6,12.7h7.5l1.1,2.2h-8.6c-0.6,0-1-0.4-1-1c0,0,0-0.1,0-0.1
	C400.6,13.2,401,12.8,401.6,12.7 M401.2,19.2c-0.7-0.1-1.3-0.8-1.2-1.5c-0.1-0.8,0.5-1.4,1.3-1.5c0,0,0,0,0,0h9.5l1.5,3.1h-11.1
	V19.2z M419.2,12.7h7.5c0.6,0.1,1,0.5,1,1.1c0.1,0.5-0.3,1-0.9,1.1c0,0-0.1,0-0.1,0h-8.5L419.2,12.7z M427.1,19.2h-11l1.5-3.1h9.5
	c0.8,0.1,1.4,0.7,1.3,1.5c0,0,0,0,0,0c0.1,0.7-0.5,1.4-1.2,1.5"/>
<path class="st0" d="M375.8,30.9c0,0,0.8-0.1,0.8-1.6c0-1-0.9-1.9-1.9-1.9l0,0h-7.5v8.2h7.7c1.3,0,2.4-1.1,2.4-2.4v0
	C377.3,32.2,376.7,31.3,375.8,30.9 M368.6,28.5h5.7c0.5,0.1,0.9,0.5,0.9,1c0,0.6-0.4,1-1,1h-5.7v-2.1L368.6,28.5z M374.9,34.4h-6.2
	v-2.7h6.2c0.7,0.1,1.1,0.7,1,1.4c0,0,0,0,0,0C376,33.8,375.5,34.4,374.9,34.4"/>
<path class="st0" d="M418,30.9c0,0,0.8-0.1,0.8-1.6c0-1-0.9-1.9-1.9-1.9l0,0h-7.6v8.2h7.7c1.3-0.1,2.3-1.1,2.4-2.4
	C419.4,32.2,418.8,31.3,418,30.9 M410.7,28.5h5.7c0.6,0,1,0.4,1,1s-0.4,1-1,1h-5.7v-2.1V28.5z M417,34.4h-6.2v-2.7h6.2
	c0.7,0.1,1.1,0.7,1,1.4c0,0,0,0,0,0C418.1,33.8,417.6,34.4,417,34.4"/>
<path class="st0" d="M386,27.2c-2.9,0-5.3,1.9-5.3,4.3s2.4,4.3,5.3,4.3s5.3-1.9,5.3-4.3S388.9,27.2,386,27.2 M386,34.8
	c-2.2,0-4-1.5-4-3.3s1.8-3.3,4-3.3s4,1.5,4,3.3S388.2,34.8,386,34.8"/>
<polygon class="st0" points="395.7,27.4 395.7,35.6 397,35.6 397,29.5 400.4,33.9 403.7,29.5 403.7,35.6 405.1,35.6 405.1,27.4 
	403.6,27.4 400.4,31.8 397.1,27.4 "/>
<polygon class="st0" points="423.1,35.6 431.5,35.6 431.5,34.5 424.4,34.5 424.4,31.8 431.5,31.8 431.5,30.6 424.4,30.6 424.4,28.6 
	431.5,28.6 431.5,27.4 423.1,27.4 "/>
<path class="st0" d="M443.9,31.9c1.2,0,2.1-0.9,2.1-2.1c0,0,0-0.1,0-0.1c0.1-1.2-0.9-2.2-2.1-2.3c-0.1,0-0.1,0-0.2,0h-7.3v8.2h1.3
	v-3.7h4.6l2.4,3.7h1.5L443.9,31.9z M437.7,30.8v-2.3h5.9c0.6,0,1.1,0.5,1.1,1.1c0,0,0,0.1,0,0.1c0,0.6-0.5,1.1-1.1,1.1H437.7z"/>
<path class="st0" d="M460.1,31.2h-4.3v1.3h4.1c-0.8,1.5-2.4,2.3-4.1,2.2c-2.4,0-4.3-1.4-4.3-3.2s1.9-3.2,4.3-3.2
	c1.4,0,2.8,0.5,3.7,1.6h1.4c-1.1-1.8-3-2.8-5.1-2.7c-3,0-5.5,2-5.5,4.4s2.4,4.4,5.5,4.4s4.7-1.4,5.3-3.3l0,0c0.1-0.3,0.2-0.7,0.2-1
	c0-0.1,0-0.2,0-0.3h-1.2L460.1,31.2z"/>
<polygon class="st0" points="132.1,137.9 130.3,125.9 130.2,125.9 128.4,137.9 124.7,137.9 127.2,124.3 133.3,124.3 135.8,137.9 "/>
<polygon class="st0" points="149.9,137.9 149.9,126.1 149.8,126.1 147.6,137.9 144.1,137.9 141.9,126.1 141.9,126.1 141.8,137.9 
	138.4,137.9 138.7,124.3 144.2,124.3 145.8,134.4 145.9,134.4 147.5,124.3 153.1,124.3 153.4,137.9 "/>
<path class="st0" d="M166.2,135.3c-0.4,2.6-2.9,3.1-4.8,3.1s-4.9-1.3-4.9-3.9v-1.1h3.7v1.3c-0.1,0.6,0.4,1.1,1,1.2
	c0.1,0,0.2,0,0.3,0c0.6,0.1,1.2-0.3,1.3-0.9c0,0,0,0,0,0c0.1-0.3,0.1-0.7,0-1c-0.7-1.7-5.4-2.5-6-5.2c-0.1-0.6-0.1-1.2,0-1.8
	c0.4-2.5,2.8-3,4.7-3c1.3-0.1,2.7,0.3,3.7,1.1c0.6,0.6,0.9,1.5,0.8,2.3v1h-3.4v-0.9c0.1-0.6-0.4-1.1-1-1.2c-0.1,0-0.1,0-0.2,0
	c-0.6-0.1-1.1,0.3-1.2,0.9c0,0.2,0,0.5,0,0.7c0.4,1.5,5.4,2.4,6,5.2C166.3,133.8,166.3,134.6,166.2,135.3"/>
<path class="st0" d="M178.9,134c0,0.3,0,0.8,0,0.9c-0.2,2.2-1.8,3.4-4.7,3.4s-4.5-1.1-4.7-3.4c0-0.1,0-0.6,0-0.9v-9.7h3.5v10
	c0,0.2,0,0.3,0,0.5c0.2,0.7,0.9,1.1,1.6,0.9c0.4-0.1,0.8-0.5,0.9-0.9c0-0.2,0-0.3,0-0.5v-10h3.5L178.9,134L178.9,134z"/>
<polygon class="st0" points="193.9,137.7 189,137.7 185.8,127 185.7,127 185.9,137.7 182.5,137.7 182.5,124.3 187.6,124.3 
	190.6,134.6 190.6,134.6 190.5,124.3 193.9,124.3 "/>
<path class="st0" d="M118,124c1.3-0.1,2.5,0.3,3.5,1.1c0.6,0.6,0.9,1.5,0.8,2.3v1h-3.4v-0.9c0.1-0.6-0.4-1.1-1-1.2
	c-0.1,0-0.1,0-0.2,0c-0.6-0.1-1.1,0.3-1.2,0.9c0,0.2,0,0.5,0,0.7c0.4,1.5,5.5,2.4,6,5.2c0.1,0.7,0.1,1.5,0,2.2
	c-0.3,2.2-2.3,3.1-4.8,3.1s-4.9-1.7-4.9-3.9v-1.1h3.7v1.3c0,0.7,0.5,1.2,1.2,1.2c0,0,0.1,0,0.1,0c0.6,0.1,1.2-0.3,1.3-0.9
	c0,0,0,0,0,0c0.1-0.3,0.1-0.7,0-1c-0.7-1.7-5.5-2.5-6-5.3c-0.1-0.6-0.1-1.2,0-1.8c0-0.3,0.2-0.7,0.3-1l0,0c0.7-1.5,2.4-2,4.5-2
	L118,124L118,124z"/>
<path class="st0" d="M202.1,138.2c-2.4,0-4.6-0.9-4.8-3.4c0-0.3,0-0.6,0-0.9v-5.6c0-0.2,0-0.7,0.1-0.9c0.3-2.4,2.2-3.4,4.8-3.4
	s4.5,0.6,4.8,3.4c0,0.3,0,0.5,0,0.8l0,0v0.5h-3.5v-0.8l0,0c0-0.2,0-0.3,0-0.5c-0.1-0.6-0.7-1-1.3-0.9c-0.6-0.1-1.2,0.3-1.3,0.9
	c-0.1,0.2-0.1,0.4-0.1,0.6v6.1c0,0.2,0,0.3,0,0.5c0.2,0.7,1,1.2,1.7,1c0.5-0.1,0.8-0.5,1-1c0-0.2,0-0.3,0-0.5v-1.9h-1.4v-2h4.8v3.6
	c0,0.2,0,0.4,0,0.9c0,0.6-0.3,1.2-0.6,1.7C205.5,137.6,204,138.1,202.1,138.2"/>
<path class="st0" d="M286.3,214.3c-13,0-23.5,10.5-23.5,23.5s10.5,23.5,23.5,23.5s23.5-10.5,23.5-23.5S299.3,214.3,286.3,214.3
	L286.3,214.3z M286.3,260.2c-12.3,0-22.3-10-22.3-22.3s10-22.3,22.3-22.3c12.3,0,22.3,10,22.3,22.3v0
	C308.6,250.2,298.6,260.2,286.3,260.2z"/>
<circle class="st1" cx="286.2" cy="237.8" r="22.8"/>
<circle class="st0" cx="286.2" cy="237.8" r="22.3"/>
<circle class="st1" cx="286.2" cy="237.8" r="15"/>
<polygon class="st1" points="286.8,222.2 288.4,218.1 288.4,222.2 289.6,222.2 289.6,216.3 287.8,216.3 286.2,220.5 286.2,220.5 
	284.6,216.3 282.8,216.3 282.8,222.2 284,222.2 284,218.1 285.6,222.2 "/>
<polygon class="st1" points="303.1,224.7 301,227.6 304.2,226.1 305.1,227.1 300.1,229.6 299.1,228.4 301,225.5 301,225.5 
	297.8,226.8 296.8,225.6 300.1,221.2 301,222.2 298.9,225 302.1,223.6 "/>
<path class="st1" d="M275.6,223.9c-0.5-0.5-1.3-0.6-1.9-0.2c0.1-0.3,0.1-0.6,0-0.9c-0.1-0.3-0.3-0.6-0.6-0.8
	c-0.8-0.7-1.6-0.1-2.2,0.6L268,226l4.5,3.8l3-3.6C276.2,225.6,276.2,224.6,275.6,223.9C275.6,223.9,275.6,223.9,275.6,223.9z
	 M269.7,225.6l1.7-2.1c0.3-0.2,0.6-0.2,0.9,0c0.3,0.2,0.3,0.6,0.2,0.8c0,0,0,0-0.1,0.1l-1.7,2L269.7,225.6z M274.5,225.9l-1.8,2.2
	l-1.1-0.9l1.8-2.2c0.2-0.3,0.7-0.3,1-0.1S274.7,225.6,274.5,225.9L274.5,225.9z"/>
<circle class="st1" cx="286.2" cy="237.8" r="14.1"/>
<path class="st0" d="M272.2,237.9h14.1v-14.1C278.5,223.8,272.2,230.1,272.2,237.9z"/>
<path class="st0" d="M286.3,237.9V252c7.8,0,14.1-6.3,14.1-14.1l0,0H286.3z"/>
<polygon class="st0" points="300.3,237.6 286.5,237.6 286.5,223.8 286,223.8 286,237.6 272.2,237.6 272.2,238.1 286,238.1 
	286,251.9 286.5,251.9 286.5,238.1 300.3,238.1 "/>
<path class="st0" d="M124,244.8c-1.2-0.8-2.2-3.5-2.2-6.7c0-0.1,0-0.2,0-0.3l0,0c-3.5-0.5-6-2-6-3.8l0,0c-0.8,1-1.3,2.3-1.3,3.6
	C114.5,241.4,118.7,244.5,124,244.8L124,244.8L124,244.8z M112.9,237.8c0-4.3,5.3-7.7,11.9-7.7s11.9,3.5,11.9,7.7s-5.3,7.7-11.9,7.7
	S112.9,242.1,112.9,237.8L112.9,237.8z M124.8,231.2c1.3,0,2.3,1.9,2.7,4.6l0,0c2.5-0.4,4.2-1.3,4.2-2.3s-3.1-2.5-6.9-2.5
	s-6.9,1.1-6.9,2.5s1.7,1.9,4.2,2.3l0,0C122.4,233.2,123.5,231.2,124.8,231.2L124.8,231.2z M125.6,244.8c5.3-0.3,9.5-3.4,9.5-7.2
	c0-1.3-0.5-2.6-1.3-3.6l0,0c-0.1,1.8-2.6,3.3-6,3.8l0,0c0,0.1,0,0.2,0,0.3C127.8,241.3,126.9,244,125.6,244.8L125.6,244.8
	L125.6,244.8z M124.8,236h1.6c-0.3-1.7-0.9-2.9-1.6-2.9s-1.4,1.2-1.6,2.9H124.8z M124.8,242.4c1,0,1.7-2,1.8-4.5h-3.5
	C123,240.4,123.8,242.4,124.8,242.4L124.8,242.4z"/>
<path class="st0" d="M173.5,237.9c0-3.3,2.6-5.9,5.9-5.9c3.3,0,5.9,2.6,5.9,5.9c0,3.3-2.6,5.9-5.9,5.9l0,0
	C176.1,243.8,173.5,241.2,173.5,237.9z M179.4,241.6c2.1,0.3,4-1.2,4.3-3.3s-1.2-4-3.3-4.3c-2.1-0.3-4,1.2-4.3,3.3
	c0,0.2,0,0.4,0,0.6C176,239.8,177.5,241.5,179.4,241.6C179.4,241.6,179.4,241.6,179.4,241.6L179.4,241.6z"/>
<polygon class="st0" points="192,234.4 192,243.5 189.5,243.5 189.5,234.4 189.5,234.4 186,234.4 186,232.3 195.5,232.3 
	195.5,234.4 192,234.4 192,234.4 "/>
<path class="st0" d="M198.5,241L198.5,241l-1,2.5h-2.9l4.6-11.2h3.1l4.6,11.2H204l-1-2.5H198.5L198.5,241z M200.8,239.1h1.6
	l-1.6-4.1l0,0l-1.6,4.1H200.8L200.8,239.1z"/>
<polygon class="st0" points="146.1,234.4 146.1,243.5 143.6,243.5 143.6,234.4 143.6,234.4 140.1,234.4 140.1,232.3 149.5,232.3 
	149.5,234.4 146.1,234.4 146.1,234.4 "/>
<path class="st0" d="M150.2,237.9c0-3.3,2.6-5.9,5.9-5.9c3.3,0,5.9,2.6,5.9,5.9c0,3.3-2.6,5.9-5.9,5.9l0,0
	C152.8,243.8,150.2,241.2,150.2,237.9z M156.1,241.6c2.1,0.3,4-1.2,4.3-3.3s-1.2-4-3.3-4.3c-2.1-0.3-4,1.2-4.3,3.3
	c0,0.2,0,0.4,0,0.6C152.7,239.8,154.2,241.5,156.1,241.6C156.1,241.6,156.1,241.6,156.1,241.6z"/>
<polygon class="st0" points="167.7,243.5 169,243.5 169,239.3 169,239.2 173.3,232.3 170.4,232.3 167.7,237 165,232.3 162.1,232.3 
	166.5,239.2 166.5,239.3 166.5,243.5 167.7,243.5 "/>
<path class="st0" d="M403.3,248.8c-3.5-2.2-8.3-2.5-15.9-0.5s-10.9,3-14.5,0.7c-1.4-1.2-1.9-3-1.5-5.7c0.9-4.4,3.2-8.6,7.3-13.3
	c2.3-2.4,4.4-4.5,7.2-5.4s1.9,1.1,1.7,1.3c-0.4,0-0.8,0.1-1.1,0.3c-0.6,0.4-1,1.1-1.1,1.8c-0.1,1.4,1.5,1.1,2.1,0.3s1.8-2.6,0.9-4.1
	c-0.4-0.6-1-1-1.7-1.1c-2.6-0.1-5,1-7.2,2.3c-4.7,3.1-8.5,7.4-10.9,12.5c-1.3,2.9-2.4,7.1-0.7,10.6s4.1,3.6,7.3,3.4
	c2.3-0.3,4.6-0.8,6.9-1.4c1.9-0.4,11.4-3.6,14.5,1.9c0.8-1.2,2.1-2,3.6-2c2.7-0.1,5.3,0.7,7.5,2.2
	C406.4,251.1,405,249.8,403.3,248.8z"/>
<path class="st0" d="M388.4,230.5c-1.8-1.1-5.4,1-8.2,4.7s-3.8,7.1-2.5,8.9s5.2-0.9,6.7-2.6l0.2-0.2c1-1,1.8-2.2,2.5-3.4l0.7-1.1
	l1.5-0.3c0,0-1.9,3-2,5.2c-0.1,1.3,0.7,2.6,2,3c2.6,0.4,4.7-1.5,6.6-3.3l0.5-0.5v0.4c-0.8,2.6,0.3,3.1,0.9,3.3s4.3-2.2,4.3-2.2
	s-0.2,1.6,0.7,2.1c0.9,0.2,1.8,0,2.5-0.6c2.4-1.8,4.4-4,6.1-6.5h-1c0,0-2.5,3.5-4.2,4.2c-0.2,0.1-0.3,0.1-0.5,0
	c-0.2-0.2-0.2-0.6,0-0.8l6.3-10.5h-3l-0.4,0.6H408c-1.8-2.4-6,1.3-9.2,5.7c-1.2,1.8-2.7,3.4-4.3,4.9c0,0-2.4,2.1-3.4,0.6
	c-0.3-0.7-0.3-1.4,0-2.1c1.1-3.1,3-5.8,5.5-7.9c0.5-0.4,1.1-0.6,1.7-0.4c0.3,0.2,0.4,0.6,0.2,1c0,0,0,0,0,0c-0.5,0-1,0.2-1.3,0.5
	c-0.6,0.5-0.9,1.3-0.7,2c1.1,1.4,3.2-1.4,3.1-3.2c0-0.6-0.4-1.2-0.9-1.5c-0.9-0.4-1.8-0.4-2.7,0c-1.4,0.7-2.6,1.6-3.6,2.7
	c-1.2,1.3-3.2,2.7-3.9,2.5s1.9-3.9,0.1-5.2 M402.9,235.5c0.8-1.1,1.7-2.2,2.7-3.2c1.4-1.2,1.9-0.7,2-0.3l-4.2,7l-0.4,0.6
	c-0.6,1-1.3,1.7-2.3,2.3h-0.6c-0.2-0.1-0.3-0.3-0.3-0.5C399.9,240.7,400.6,238.5,402.9,235.5 M386.7,236.8L386.7,236.8l-1.3,2
	c-0.8,1.2-1.8,2.2-3,2.9c-0.4,0.2-0.8,0.1-1.1-0.1c-0.4-0.7-0.4-1.5,0-2.2v-0.3c0.7-1.6,1.6-3.1,2.7-4.5h0.1c0.6,1,1.6,1.7,2.7,1.9
	l0,0 M388,234.1l-0.6,1.3h-0.6c-0.7-0.2-1.3-0.7-1.6-1.4c-0.1-1,0.4-2,1.3-2.5c0.4-0.3,1-0.3,1.5-0.1c0.2,0.3,0.3,0.6,0.3,1
	c0,0.7-0.2,1.4-0.5,2.1L388,234.1z"/>
<polygon class="st0" points="416.1,230.5 413.4,230.5 411.8,233.1 414.5,233.1 "/>
<path class="st0" d="M449.8,249.1c-0.3,0.2-0.7,0-0.6-0.4c0.6-1.2,1.2-2.4,2-3.5l4.4-7.5h-3l-0.4,0.8l-0.7-0.8
	c-0.8-0.4-1.8-0.3-2.6,0.2c-3.2,1.8-5.6,5.4-7.5,8.2c0,0-2,3.1-3.1,3.3s-0.8-1-0.7-1.3c0.4-1.8,1-3.6,1.9-5.2c1.8-1.2,3.4-2.5,5-3.9
	c2.5-2.3,4.8-4.8,6.8-7.5h-1c-2.7,3.6-8.2,8.7-9.8,9.5c0.7-1.7,5.6-9.9,9.6-13.8l0.6-0.6c0.8-0.9,1.7-1.6,2.8-2
	c0.1,0,0.3,0.1,0.3,0.2c0,0.7-0.2,1.3-0.6,1.9l-0.5,0.9l1.1-0.3c0.6-0.9,0.9-2,0.8-3.1c-0.1-0.4-0.3-0.6-0.7-0.7
	c-1.2-0.2-2.6,0.6-3.6,1.3l0,0c-5.5,4.1-10.2,10.1-14.2,18.2c-0.5,0.2-1,0.3-1.6,0.3c0.5-0.9,0.9-2,1.2-3c0.1-0.3,0.1-0.7,0.1-1
	c0-0.7-0.3-1.4-0.8-1.8c-0.8-0.3-1.6-0.3-2.4,0.1c-2.9,1.2-5.1,4-6.6,6.4c-0.9,1.5-1.6,3.2-1.9,4.9c-0.2,1.4,0.2,2.4,1,2.8
	c0.8,0.3,1.7,0.2,2.4-0.2c2.9-1.5,5-4.5,6.6-7.2l1.6-0.2l0,0l-0.4,1.1c-1,2.9-1.5,4.8-0.5,6s3.7-0.1,5.6-2.3
	c-0.4,2.7,1.1,3.1,2.2,2.9c1.3-0.5,2.5-1.3,3.4-2.3c-0.2,0.8-0.2,2.2,1,2.3c0.7,0.1,1.5-0.2,2.1-0.6c2.5-1.3,5.4-5.6,6.2-6.8h-1
	c-1.1,1.5-2.5,3.6-4.2,4.6 M428,248.7c-0.1-0.2-0.2-0.5-0.2-0.7c0-1.6,1.8-4.5,3.1-6.1l0,0c0.5,1,1.4,1.8,2.5,2.2
	c-0.9,1.9-4,6.1-5.3,4.7 M434,243.3c-0.9-0.2-1.7-0.9-1.9-1.8c-0.1-1.1,0.4-2.1,1.4-2.5c0.4-0.3,0.9-0.3,1.3-0.2
	c0.4,0.2,0.5,0.7,0.5,1.1c0,0.3,0,0.5-0.1,0.8l0,0c-0.3,0.9-0.6,1.8-1.1,2.6 M446.4,248.3l-0.3,0.2c-0.3,0.4-0.9,0.6-1.4,0.5
	c-0.2-0.1-0.3-0.2-0.3-0.4c0.1-1,0.4-2,0.9-2.9v-0.2c1.3-2.4,3-4.6,5.1-6.4c0.3-0.3,0.8-0.4,1.2-0.3c0.1,0.1,0.2,0.2,0.2,0.4v0.2
	l-1.8,3c-1.2,2.1-2.6,4.1-4.2,5.9H446.4z"/>
<path class="st0" d="M446.1,226.7L446.1,226.7l-4.4-2.3c-2.2-1.2-4.8-1.4-7.2-0.6l-1,0.3c-1-1-2.6-0.9-3.8-0.7
	c-4.3,1.2-8.3,4.1-12.6,9.1c-2.7,3.1-4.8,6.8-6.2,10.7c-0.8,2.3-1,5.6,0.9,7.5s3.9,1.3,5.5,0.7c3.7-1.9,6.5-5.1,8-9
	c0.4-1.2,0.8-2.8,0.1-4.1c-0.3-0.6-1-1-1.7-0.9c-2.4,0.2-4.7,2.1-5.9,4.7c-0.6,1.4-1,2.8-1.2,4.3c1.1-1.2,2.4-2.2,3.9-2.9
	c0.2-1.2,0.7-2.3,1.4-3.3c0.4-0.6,1.3-1.7,2.3-1.4s0.6,2.6-0.6,4.8c-0.9,1.7-2,3.2-3.4,4.5c-1.2,1-2.9,2.1-4.4,1.2
	c-1-0.7-1.5-1.9-1.3-3.1c0.5-4.2,2.4-7.7,5.3-11.7s6.1-7.6,10.5-9.6c0.7-0.4,1.6-0.5,2.4-0.3c-2.5,1.4-4.6,3.5-6,6.1
	c-0.5,1-1.2,2.4-0.5,3.6c0.3,0.5,0.9,0.7,1.5,0.6c2.4-0.5,3.9-2.7,5.2-4.6c0.8-1.4,1.3-3,1.4-4.6c0-0.2,0-0.5,0-0.7s3.5,0.4,3.5,0.4
	c1.7,0.5,4.6,2.7,6.2,3.5c0.7-0.9,1.5-1.7,2.4-2.4 M433.4,225.7c-0.4,4.9-4.5,7.8-5.4,8s-1.6-0.1-0.7-2.2c1.3-2.7,3.4-5,6.1-6.4
	c0,0.3,0,0.6-0.2,0.8L433.4,225.7z"/>
<path class="st0" d="M456.9,226.5c-1.9,1.2-4.1,1.8-6.3,1.7c-0.7,0.8-1.4,1.7-2,2.6c3.6,0.6,7-1.3,9.2-3.2c1.5-1.2,2.7-2.7,3.6-4.4
	C460.1,224.5,458.6,225.6,456.9,226.5z"/>
<path class="st0" d="M268.5,126.4c3.6,3.5,12.3,7.9,14.3,8.9h0.2c0-0.1,0-0.1,0-0.2c-3.5-7.6-7.9-14.7-13.1-21.2
	c0,0-4.1,3.9-3.8,7.8C266.2,123.5,267.1,125.2,268.5,126.4z"/>
<path class="st0" d="M281.7,138.2c0-0.1-0.1-0.1-0.2-0.1l0,0l-14.5,0.5c1.6,2.8,4.2,5,7,4.3s6.2-3.5,7.6-4.5l0,0
	C281.7,138.4,281.7,138.3,281.7,138.2z"/>
<path class="st0" d="M268.1,136.4c0.9,0.3,1.8,0.6,2.8,0.6h11c0-0.1,0-0.2-0.1-0.2c-6.4-4.3-18.7-10.9-18.7-10.9
	C261.8,130.2,264,134.7,268.1,136.4z"/>
<path class="st0" d="M284.7,134h0.2c0.1,0,0.1-0.1,0.1-0.2l0,0c2-19.8-1.8-25.8-2.2-26.3h-0.3l-2,0.4c-2.2,0.6-4,2.3-4.7,4.5
	c-0.4,1.5-0.4,3.1,0,4.6C277.1,122.8,283.4,132.1,284.7,134z"/>
<path class="st0" d="M287.6,134.1c0.1,0,0.2,0,0.2-0.1l0,0c1.4-2,7.6-11.3,8.9-16.9c0.4-1.5,0.4-3.1,0-4.6c-0.7-2.2-2.5-3.9-4.8-4.5
	l-2-0.4h-0.3c-0.4,0.5-4.2,6.5-2.2,26.3C287.4,134,287.5,134.1,287.6,134.1z"/>
<path class="st0" d="M305.5,138.6l-14.5-0.5h-0.2c0,0.1,0,0.2,0.1,0.2l0,0c1.4,1,5.6,3.9,7.6,4.5
	C298.5,142.9,302.3,144.2,305.5,138.6z"/>
<path class="st0" d="M309.4,125.8c0,0-12.3,6.6-18.6,10.9l0,0c-0.1,0-0.1,0.1-0.1,0.2h11.2c0.9-0.1,1.7-0.3,2.5-0.6
	c2.1-0.8,3.8-2.4,4.7-4.5c0.5-1.1,0.7-2.3,0.7-3.5l0,0C309.8,127.5,309.7,126.6,309.4,125.8z"/>
<path class="st0" d="M289.5,135c0,0.1,0,0.1,0,0.2h0.2c2.1-1,10.7-5.4,14.3-8.9c1.4-1.2,2.2-2.9,2.4-4.7c0.3-4-3.8-7.8-3.8-7.8
	C297.4,120.3,293,127.4,289.5,135L289.5,135z"/>
<polygon class="st0" points="268.3,150.1 264.4,150.1 264.4,147.1 262.7,147.1 262.7,154.6 264.4,154.6 264.4,151.5 268.3,151.5 
	268.3,154.6 270,154.6 270,147.1 268.3,147.1 "/>
<path class="st0" d="M276.8,151.6c0,1.3-0.4,1.9-1.8,1.9c-1.4,0-1.8-0.6-1.8-1.9v-4.5h-1.7v4.6c-0.1,0.7,0.1,1.4,0.5,2
	c1.8,1.4,4.4,1.4,6.2,0c0.4-0.6,0.6-1.3,0.5-2v-4.6H277v4.5H276.8z"/>
<path class="st0" d="M282.4,147.1l-3.5,7.6h1.8l0.7-1.8h3.6l0.8,1.8h1.9l-3.5-7.6H282.4z M282,151.5l1.2-2.9l1.2,2.9H282L282,151.5z
	"/>
<polygon class="st0" points="295.8,152.9 294,147.1 291.9,147.1 290.3,152.9 288.4,147.1 286.6,147.1 289.3,154.6 291.4,154.6 
	292.9,149 294.7,154.6 296.8,154.6 299.3,147.1 297.6,147.1 "/>
<path class="st0" d="M299.7,151c-0.1,1.2,0.4,2.3,1.3,3c0.8,0.5,1.7,0.8,2.6,0.7h2.9v-1.3h-2.8c-1.4,0-1.9-0.5-2-1.9h4.8v-1.3h-4.8
	c-0.1-0.9,0.6-1.7,1.6-1.8c0.1,0,0.2,0,0.3,0h2.8v-1.3h-2.9C300.9,147.1,299.7,148.3,299.7,151z"/>
<rect x="307.9" y="147.1" class="st0" width="1.8" height="7.6"/>
<path class="st0" d="M112.9,15.2h7.9c1.9,0,3.6,1.4,4,3.3c0.5,1.9-0.6,3.8-2.4,4.5h-0.2c1.5,0.4,2.7,1.6,2.9,3.2
	c0.6,2.3-0.8,4.5-3.1,5.1c-0.2,0.1-0.5,0.1-0.7,0.1h-8.4C112.9,26.1,112.9,20.7,112.9,15.2z M116.4,28.4h3.4c1,0,1.9-0.8,1.9-1.8
	c0-1-0.8-1.9-1.8-1.9l0,0h-3.6v3.7H116.4z M116.4,21.6h3.5c0.7-0.1,1.2-0.5,1.4-1.2c0.3-0.9-0.2-1.8-1.1-2.1c-0.2,0-0.3-0.1-0.5-0.1
	h-3.3v0.3c0,1.1,0,2.1,0,3.2V21.6z"/>
<path class="st0" d="M176,31.9l-1.2-0.2c-3-0.7-5-3.5-4.6-6.6c0.3-3.3,3.3-5.7,6.6-5.4c2.7,0.3,4.9,2.4,5.3,5.1
	c0.1,0.6,0.1,1.2,0.1,1.9h-8.8c0.1,1,0.8,1.9,1.8,2.3c1.5,0.6,3.2,0.4,4.5-0.6l0.2-0.2h0.1l1.4,2l-1.3,0.8c-0.8,0.4-1.8,0.6-2.7,0.7
	H176L176,31.9z M179.2,24.5c0.1-1.5-1.3-2.6-3.1-2.5s-2.8,1.3-2.6,2.5H179.2z"/>
<path class="st0" d="M188.7,31.9l-1.5-0.3c-2.3-0.7-4-2.7-4.2-5.1c-0.3-2.2,0.5-4.4,2.3-5.8c2.5-2,6.3-1.6,8.3,0.9
	c0.6,0.8,1,1.7,1.2,2.6c0.1,0.4,0.1,0.7,0.1,1.1c0,0.4,0,0.8,0,1.3h-8.8c0.1,0.6,0.4,1.2,0.8,1.6c0.9,0.9,2.2,1.3,3.5,1
	c0.9-0.1,1.6-0.5,2.3-1.1l1.4,2.1l-1.1,0.7c-0.9,0.5-1.9,0.8-2.9,0.9h-1.4L188.7,31.9z M186.2,24.5h5.7c0.1-1.4-1.3-2.6-3-2.5
	C187.5,21.9,186.3,23.1,186.2,24.5C186.2,24.5,186.2,24.5,186.2,24.5L186.2,24.5z"/>
<path class="st0" d="M130.6,31.9l-1.1-0.2c-2.2-0.4-3.8-2.4-3.7-4.6c0-2.3,0-4.5,0-6.8v-0.4h3.1v0.4c0,2.1,0,4.3,0,6.4
	c-0.1,0.9,0.4,1.8,1.2,2.2c1,0.5,2.1,0.4,3-0.2c0.6-0.5,1-1.2,0.9-2c0-2.1,0-4.3,0-6.4v-0.5h3.1c0,0.1,0,0.3,0,0.4
	c0,2.3,0,4.5,0,6.7c0.2,2.5-1.8,4.7-4.3,4.9c0,0-0.1,0-0.1,0h-2L130.6,31.9z"/>
<path class="st0" d="M160.1,31.5V15.2h11.3v1.6c0,0.3,0,0.7,0,1s-0.1,0.4-0.4,0.4h-7.4v3.4h5.5c0.3,0,0.4,0.1,0.4,0.4s0,1.7,0,2.6
	h-5.9v6.8L160.1,31.5L160.1,31.5z"/>
<path class="st0" d="M195.7,31.5v-0.4c0-3.7,0-7.3,0-10.9c0-0.5,0-0.5,0.5-0.5s3.4-0.1,5.1,0.1c2.3,0,4.4,1.5,5.2,3.7
	c0.9,2.3,0.3,5-1.6,6.7c-1.1,0.9-2.4,1.4-3.8,1.4h-5.4L195.7,31.5z M198.7,29h1.7c1.9,0.2,3.5-1.2,3.7-3c0.1-1.5-0.7-2.9-2-3.5
	c-1.1-0.3-2.3-0.4-3.4-0.3C198.7,24.5,198.7,26.8,198.7,29z"/>
<path class="st0" d="M143.4,22.4h-5.3v-2.7h9.5c0,0.5,0,1,0,1.5c0,0.4-0.1,0.9-0.4,1.2l-4.7,6l-0.3,0.4h5.5v2.7h-9.6
	c0-0.7,0-1.5,0-2.2c0-0.1,0.1-0.3,0.2-0.4l4.8-6.2L143.4,22.4z"/>
<path class="st0" d="M148.5,22.4c0-0.8,0-1.6,0-2.4v-0.3h9.5c0,0.7,0,1.4,0,2.1c0,0.1-0.1,0.2-0.2,0.3l-4.9,6.2l-0.3,0.4h5.1
	c0.3,0,0.4,0.1,0.4,0.4s0,1.5,0,2.3h-9.7c0-0.8,0-1.5,0-2.3l0.2-0.3l4.7-6l0.4-0.5h-5.3L148.5,22.4z"/>
<path class="st0" d="M286.3,0c13,0,23.5,10.5,23.5,23.5S299.3,47,286.3,47s-23.5-10.5-23.5-23.5C262.9,10.5,273.3,0.1,286.3,0
	L286.3,0z"/>
<path class="st1" d="M286.3,3c11.3,0,20.5,9.2,20.5,20.5S297.6,44,286.3,44s-20.5-9.2-20.5-20.5l0,0C265.9,12.2,275,3.1,286.3,3
	L286.3,3z"/>
<path class="st0" d="M272.5,12.5l7.4,19.1l2.7-7h7.1l2.7,7l7.4-19.3c-1.3-1.6-2.9-3-4.7-4l-5.2,14.2h-7.3l-5.2-14.3
	c-1.9,1.1-3.6,2.6-5,4.3l0,0H272.5z"/>
<path class="st0" d="M302.8,17.3l-8.4,21.9C302.3,35.1,305.9,25.7,302.8,17.3L302.8,17.3z"/>
<path class="st0" d="M290.7,40.6v-0.4l-4.5-11.8l-4.5,11.8v0.4c1.5,0.4,3.1,0.6,4.7,0.6c1.5,0,3-0.2,4.5-0.6l0,0H290.7z"/>
<path class="st0" d="M277.8,39l-8.2-21.3c-0.7,1.9-1,3.9-1,5.9C268.6,30,272.2,35.9,277.8,39L277.8,39L277.8,39z"/>
<path class="st0" d="M286.3,5.9c1.5,0,3,0.2,4.5,0.6l-4.5,12.3l-4.5-12.3C283.2,6.1,284.7,5.9,286.3,5.9L286.3,5.9L286.3,5.9z"/>
<path class="st0" d="M31.9,7.9c0.7,0.6,1.5,1.1,2.4,1.5c2.1,1.1,4.4,1.6,6.8,1.5c2.4-0.2,4.7-0.8,6.9-1.8c1.9-0.8,3.9-1.3,5.9-1.4
	h0.6c2,0.2,3.9,0.8,5.6,1.8c0.8,0.4,1.5,0.9,2.1,1.5l0.6,0.3c0.3,0,0.5-0.2,0.6-0.4c0.1-0.2,0.1-0.5,0-0.7L63,9.7
	c-0.7-0.6-1.5-1.1-2.3-1.5c-2.1-1.1-4.4-1.7-6.7-1.8c-2.3,0-4.6,0.5-6.7,1.5c-2.1,1-4.4,1.6-6.7,1.7h-0.1c-2.8,0-5.6-1.1-7.7-2.9
	c-0.4-0.2-0.8-0.2-1.1,0.2c-0.1,0.2-0.1,0.6,0,0.8L31.9,7.9z"/>
<path class="st0" d="M31.9,15.5c0.7,0.6,1.5,1.1,2.4,1.5c2.1,1.1,4.4,1.6,6.8,1.5c2.4-0.2,4.7-0.8,6.9-1.8c1.9-0.8,3.9-1.3,5.9-1.4
	h0.6c2,0.2,3.9,0.8,5.6,1.8c0.8,0.4,1.5,0.9,2.1,1.5l0.6,0.3c0.3,0,0.5-0.2,0.6-0.4c0.1-0.2,0.1-0.5,0-0.7L63,17.3
	c-0.7-0.6-1.5-1.1-2.3-1.5c-2.1-1.1-4.4-1.7-6.7-1.8c-2.3,0-4.6,0.5-6.7,1.5c-2.1,1-4.4,1.6-6.7,1.7h-0.1c-2.8,0-5.6-1.1-7.7-2.9
	c-0.4-0.2-0.8-0.2-1.1,0.2c-0.1,0.2-0.1,0.6,0,0.8L31.9,15.5z"/>
<path class="st0" d="M31.9,23c0.7,0.6,1.5,1.1,2.4,1.5c2.1,1.1,4.4,1.6,6.8,1.5c2.4-0.2,4.7-0.8,6.9-1.8c1.9-0.8,3.9-1.3,5.9-1.4
	h0.6c2,0.2,3.9,0.8,5.6,1.8c0.8,0.4,1.5,0.9,2.1,1.5l0.6,0.3c0.3,0,0.5-0.2,0.6-0.4c0.1-0.2,0.1-0.5,0-0.7L63,24.8
	c-0.7-0.6-1.5-1.1-2.3-1.5c-2.1-1.1-4.4-1.7-6.7-1.8c-2.3,0-4.6,0.5-6.7,1.5c-2.1,1-4.4,1.6-6.7,1.7h-0.1c-2.8,0-5.6-1.1-7.7-2.9
	c-0.4-0.2-0.8-0.2-1.1,0.2c-0.1,0.2-0.1,0.6,0,0.8L31.9,23z"/>
<path class="st0" d="M29.2,15.9c0-4.3-2-8.4-5.3-11.2c-3.4-2.8-8-3.9-12.3-3C3.8,3.4-1.2,11.1,0.5,18.9c1.1,5.2,5,9.4,10.1,10.9
	c4.3,1.2,8.9,0.4,12.5-2.1C26.9,25,29.2,20.6,29.2,15.9z M22.2,26.7c-5.9,4.3-14,3-18.3-2.9c-0.9-1.2-1.6-2.6-2-4.1
	C0.7,15.5,1.5,11,4.2,7.6c4.6-5.7,12.9-6.6,18.6-2c3.1,2.5,5,6.3,4.9,10.3c0,4.2-2,8.3-5.4,10.8H22.2z"/>
<path class="st0" d="M19.6,34.3c-0.3,0-0.6,0.3-0.6,0.6c0,0,0,0.1,0,0.1v10c0,0.4,0.3,0.6,0.7,0.6c0.4,0,0.6-0.3,0.6-0.6v-9.9
	c0.1-0.3,0-0.7-0.3-0.8C19.8,34.3,19.7,34.3,19.6,34.3z"/>
<path class="st0" d="M14.5,34.3c-0.3,0-0.6,0.3-0.6,0.6c0,0,0,0.1,0,0.1v8.2l-7.5-8.7H5.9c-0.3,0-0.6,0.3-0.6,0.6c0,0,0,0.1,0,0.1
	v10c0,0.4,0.3,0.7,0.7,0.7c0.4,0,0.6-0.3,0.6-0.7v-8.6l7.6,9l0.3,0.2h0.2c0.3,0,0.6-0.3,0.6-0.6v0V35.1c0.1-0.3,0-0.7-0.3-0.8
	C14.9,34.2,14.7,34.2,14.5,34.3z"/>
<path class="st0" d="M46.7,34.3c-0.3,0-0.6,0.3-0.6,0.6c0,0,0,0.1,0,0.1v4.3h-7.4v-4.2c0.1-0.3-0.1-0.7-0.4-0.8c-0.1,0-0.2,0-0.2,0
	l0,0c-0.3,0-0.6,0.3-0.6,0.6c0,0,0,0.1,0,0.1v10c0,0.3,0.3,0.6,0.6,0.6h0l0,0c0.3,0,0.6-0.3,0.6-0.6v0v-4.6h7.4V45
	c0,0.4,0.3,0.6,0.6,0.6c0.4,0,0.7-0.3,0.7-0.6v-9.9c0.1-0.3,0-0.7-0.3-0.8C46.9,34.3,46.8,34.3,46.7,34.3z"/>
<path class="st0" d="M27.3,35.7c1.8-0.8,3.9-0.4,5.3,1c0.2,0.2,0.6,0.3,0.9,0.1c0.2-0.2,0.3-0.6,0.1-0.8c0,0,0,0-0.1-0.1
	c-1.7-1.7-4.2-2.2-6.4-1.4c-3,1.2-4.5,4.5-3.3,7.5c0.4,1,1.1,1.9,2,2.6c1.9,1.4,4.5,1.5,6.5,0.3l1.1-0.9c0.2-0.2,0.2-0.6,0-0.8
	c0,0,0,0-0.1-0.1c-0.3-0.2-0.6-0.1-0.8,0.1c-1.4,1.3-3.5,1.6-5.2,0.8c-2.3-1.2-3.2-4.1-1.9-6.4C25.8,36.8,26.5,36.1,27.3,35.7z"/>
<path class="st0" d="M20.6,8.2c-0.4,0-0.8,0.4-0.8,0.8l0,0v11.9L9.3,8.5C9.1,8.3,8.9,8.2,8.6,8.3c-0.4,0-0.8,0.4-0.8,0.8l0,0v14
	c0.2,0.4,0.6,0.6,1,0.5c0.2-0.1,0.4-0.3,0.5-0.5v-12l10.5,12.5l0.3,0.2h0.3c0.4,0,0.8-0.4,0.8-0.8l0,0V8.9
	C21.2,8.6,20.9,8.3,20.6,8.2z"/>
<path class="st0" d="M59.6,35.4c0.3,0.1,0.5-0.1,0.6-0.4c0,0,0-0.1,0-0.1c0-0.3-0.2-0.5-0.5-0.5c0,0-0.1,0-0.1,0h-7.7
	c-0.3,0-0.6,0.3-0.6,0.6c0,0,0,0.1,0,0.1v10c0,0.3,0.3,0.6,0.6,0.6h0h7.7c0.3,0.1,0.5-0.1,0.6-0.4c0,0,0-0.1,0-0.1
	c0-0.3-0.2-0.5-0.5-0.5c0,0-0.1,0-0.1,0h-7v-4.2h5.7c0.3,0.1,0.5-0.1,0.6-0.4c0,0,0-0.1,0-0.1c0-0.3-0.2-0.5-0.5-0.5
	c0,0-0.1,0-0.1,0h-5.7v-4h7V35.4z"/>
<path class="st0" d="M64.5,34.3h-0.1L63.8,35l-0.6-0.7h0v1.1h0.1v-1l0.5,0.6h0.1l0.5-0.6v1h0.1L64.5,34.3L64.5,34.3L64.5,34.3z"/>
<path class="st0" d="M62,34.4h-0.1v1.1H62V34.4h-0.1H62z"/>
<path class="st0" d="M61.4,34.4L61.4,34.4z"/>
<path class="st0" d="M48,108.6c-0.6-0.6-1.5-1-2.4-1H19c-1.8,0-3.3,1.5-3.3,3.3l0,0v40.4c0,1.8,1.5,3.3,3.3,3.3h26.6
	c1.8,0,3.3-1.5,3.3-3.3V111C48.9,110.1,48.6,109.2,48,108.6z M26.7,115.2c0.6-0.8,1.3-1.4,2.1-1.9c1.1-0.7,2.4-1.2,3.7-1.4
	c0.7-0.1,1.3-0.1,2,0h0.2c0,0.1,0,0.1,0,0.2l-0.2,0.2l-0.6,0.3h-0.7c-2,0.4-4,1.3-5.7,2.4l0,0l-0.4,0.2H26.7L26.7,115.2z
	 M26.9,121.2l1-1.4l0.8-0.8c1.2-1.2,2.8-2.2,4.4-2.8c1-0.3,2-0.5,3.1-0.6c1.7-0.2,3.4,0,4.9,0.7c1.6,0.8,2.9,2.1,3.6,3.8l0.2,0.6
	l-0.4-0.7l-0.4-0.5v0.6H44c-1.1-1.5-2.8-2.6-4.7-3c-1.6-0.3-3.3-0.2-4.8,0.4c-1.8,0.7-3.4,1.9-4.7,3.3c-1.1,1.2-1.8,2.7-1.8,4.3
	c0,0.4,0,0.8,0.1,1.2c0.1,1.1,0.6,2.2,1.4,3c0.6,0.7,1.5,1.1,2.4,1.3c1.5,0.2,3.1,0.1,4.5-0.5c0.9-0.3,1.8-0.8,2.6-1.4l1.2-1.2
	c0.6-0.7,1.1-1.5,1.5-2.4v-0.2l0,0c0.1-0.3,0.1-0.7,0.1-1v-0.2c0-0.3-0.1-0.5-0.2-0.8v0.3c-0.4-1.4-1.4-2.5-2.7-3.1
	c-2.1-0.8-4.5-0.1-5.8,1.7c-0.4,0.5-0.6,1-0.7,1.6c-0.3,1.4,0.6,2.9,2,3.3c-1.1,0.8-2.6,0.7-3.5-0.3l-0.5-0.7c-0.5-0.9-0.5-2-0.1-3
	l0,0c0.2-0.5,0.4-0.9,0.7-1.3h0.1c0.8-1,1.9-1.8,3.1-2.3c1.3-0.5,2.8-0.6,4.2-0.3c1.7,0.3,3.1,1.5,3.8,3l0,0
	c0.5,1.4,0.6,2.9,0.3,4.3l-0.2,0.6c-0.6,1.8-1.9,3.4-3.5,4.5l-0.7,0.4c-1.2,0.6-2.5,1.1-3.8,1.4h-0.7c-1.4,0.1-2.8-0.1-4.1-0.8
	c-1.1-0.6-2-1.4-2.6-2.5c-0.4-0.7-0.6-1.5-0.8-2.3c-0.5-2.1-0.2-4.2,0.8-6.1V121.2z M37.8,131.8h-0.2l-1.3,0.7H36l-1.5,0.4l-0.9,0.2
	h-0.2l0.8-0.3l1-0.3l2.1-0.7L37.8,131.8z M27,150.2h-5l-0.3-0.2c-0.2-0.1-0.3-0.4-0.3-0.6c0-0.2,0.1-0.4,0.2-0.6l0.5-0.5h0.1
	l3.2-2.6H22l-0.3-0.2v-0.6h4.8l0.3,0.2c0.2,0.1,0.3,0.4,0.3,0.6c0,0.2-0.1,0.4-0.2,0.6l-0.5,0.5h-0.2l-3.2,2.6h3.3l0.4,0.2
	c0.1,0.1,0.2,0.3,0.2,0.5v0.3l0,0L27,150.2z M33.7,150.3h-0.1l-0.7-0.2h-0.1c-0.2-0.2-0.3-0.4-0.3-0.6v-1.4c0-0.4,0-0.9-0.2-1.3
	l-0.4-0.6c-0.3-0.3-0.8-0.5-1.3-0.5c-0.5,0-1,0.2-1.4,0.6c-0.3,0.4-0.4,0.8-0.4,1.3c0,0.4,0.1,0.9,0.4,1.2c0.3,0.4,0.7,0.6,1.2,0.6
	c0.3,0,0.6-0.1,0.9-0.3c0.2-0.2,0.4-0.4,0.5-0.7v-0.3c0.2,0.3,0.3,0.6,0.3,0.9c0,0.6-0.3,1.1-0.8,1.3l-1.1,0.2c-1.3,0-2.4-1-2.6-2.3
	c0-0.2,0-0.4,0-0.6c-0.1-1.7,1.2-3,2.9-3.1c0,0,0.1,0,0.1,0h0.1c0.9,0,1.7,0.3,2.3,0.9c0.5,0.5,0.8,1.2,0.8,1.9c0,0.2,0,0.4,0,0.6
	v2.6L33.7,150.3z M36,150.3h-0.1l-0.8-0.2H35c-0.2-0.2-0.3-0.4-0.3-0.6v-5h0.1l0.7,0.2h0.1c0.2,0.2,0.3,0.4,0.3,0.6v5H36z
	 M35.9,143.8l-0.5,0.2l-0.5-0.2c-0.3-0.3-0.3-0.7,0-1c0,0,0,0,0,0l0.5-0.2l0.5,0.2C36.2,143.1,36.1,143.6,35.9,143.8
	C35.9,143.8,35.9,143.8,35.9,143.8L35.9,143.8z M43.1,149.3c0,0.2-0.1,0.4-0.2,0.6h-0.1c-0.2,0.2-0.4,0.3-0.7,0.3l-0.7-0.3l-0.3-0.4
	l-2.8-3.6h-0.1v4.2h0l-0.7-0.2h-0.1c-0.2-0.2-0.3-0.4-0.3-0.6v-3.9c0-0.2,0.1-0.4,0.2-0.6h0.1c0.2-0.2,0.4-0.3,0.7-0.3l0.7,0.2
	l0.3,0.4l2.8,3.6H42v-4.2h0.1l0.7,0.2h0.1c0.2,0.2,0.3,0.4,0.3,0.6v3.9L43.1,149.3z M45.1,127.2c-0.5,1.8-1.3,3.5-2.4,5l0,0
	l-0.2,0.2c-1.4,1.9-3.1,3.5-5,4.8c-1.5,1-3.1,1.9-4.8,2.5c-1.2,0.4-2.4,0.7-3.7,0.8c-2,0.2-3.9-0.1-5.7-1c-1.4-0.7-2.5-1.8-3.3-3.1
	c-0.7-1.2-1-2.7-0.8-4.1c0.3,1.5,1,2.9,2.1,4c0.7,0.7,1.6,1.3,2.5,1.6c0.9,0.4,1.8,0.6,2.8,0.7h0.8c2.3-0.2,4.4-0.9,6.4-2h-0.1
	c-1.8,0.6-3.8,0.8-5.7,0.5c-1.3-0.2-2.5-0.7-3.5-1.4c-1.4-1.1-2.5-2.5-3.1-4.2c-0.8-2.1-0.9-4.3-0.4-6.5l0,0
	c0.1,0.7,0.2,1.4,0.3,2.1c0.2,1.1,0.6,2.2,1.1,3.3v0.3l0.2,0.3c0.5,0.9,1.1,1.7,1.8,2.4c1,0.9,2.2,1.4,3.5,1.6
	c1.2,0.2,2.3,0.1,3.5-0.1l1.7-0.4c1.4-0.5,2.8-1,4.2-1.7c1.3-0.6,2.5-1.4,3.6-2.2c2.3-1.5,3.8-3.9,4-6.6c0.1,0.5,0.1,0.9,0,1.4l0,0
	l0.6-2.1C45.7,124.6,45.5,125.9,45.1,127.2L45.1,127.2z"/>
<path class="st0" d="M36.3,242.8c0,3.5,2.8,6.3,6.3,6.3l0,0c3.5,0,6.3-2.8,6.3-6.3c0-1.7,0-3.4,0-5.1c0-2.4,1.9-4.3,4.3-4.3l0,0
	c2.4,0,4.3,1.9,4.3,4.3v4.7c-0.1,8.2-6.6,14.7-14.8,14.8l0,0c-4.1,0-8-1.7-10.8-4.7c-5.4,5.9-14.6,6.3-20.5,0.9
	c-5.9-5.4-6.3-14.6-0.9-20.5c4.4-4.8,11.5-6.1,17.3-3.1v-7.4c0-2.4,1.9-4.3,4.3-4.3l0,0c2.4,0,4.3,1.9,4.3,4.3v20.4l0,0L36.3,242.8z
	 M21.2,236.5c3.5,0,6.3,2.8,6.3,6.3c0,3.5-2.8,6.3-6.3,6.3c-3.5,0-6.3-2.8-6.3-6.3l0,0C14.9,239.3,17.7,236.5,21.2,236.5L21.2,236.5
	z M55.6,255.3h0.8V255h-0.8v0.6l0,0V255.3z M55.2,256.6v-2.2h1.5l0.2,0.2c0.1,0.1,0.1,0.2,0.1,0.3c0,0.2-0.1,0.3-0.2,0.4l-0.4,0.2
	h0.2v0.2l0.2,0.3l0.3,0.4h-0.6l-0.2-0.4l-0.3-0.5h-0.4v0.9h-0.4L55.2,256.6z M56,253.5l1,0.3c0.3,0.2,0.6,0.5,0.8,0.8
	c0.4,0.6,0.4,1.5,0,2.1c-0.2,0.3-0.5,0.6-0.8,0.8l-1,0.3l-1-0.3c-0.3-0.2-0.6-0.5-0.8-0.8c-0.4-0.6-0.4-1.5,0-2.1
	c0.2-0.3,0.5-0.6,0.8-0.8L56,253.5L56,253.5z M56,253.9l-0.8,0.2c-0.3,0.1-0.5,0.3-0.6,0.6c-0.3,0.5-0.3,1.2,0,1.7
	c0.1,0.3,0.3,0.5,0.6,0.6l0.8,0.2l0.8-0.2c0.3-0.1,0.5-0.3,0.6-0.6c0.3-0.5,0.3-1.2,0-1.7c-0.1-0.3-0.3-0.5-0.6-0.6L56,253.9
	L56,253.9z"/>
</svg>
