<svg id="Layer_1" data-name="Layer 1" xmlns="http://www.w3.org/2000/svg" viewBox="0 0 316.7 316.7"><defs><style>.cls-1{fill:#fe3035;}</style></defs><title>Homfrie</title><text x="-121.4" y="-151.7"/><polygon class="cls-1" points="66 235.3 55.4 235.3 55.4 219.4 43.2 219.4 43.2 235.3 32.6 235.3 32.6 196.3 43.2 196.3 43.2 210.8 55.4 210.8 55.4 196.3 66 196.3 66 235.3"/><path class="cls-1" d="M228.9,352.5q-4.8-5.1-14.1-5.1t-14.1,5.1q-4.9,5.1-4.9,14.9t4.9,15q4.9,5.1,14.1,5.1t14.1-5.1q4.8-5.1,4.8-15T228.9,352.5ZM220.6,376a6.8,6.8,0,0,1-5.9,2.7q-7.9,0-7.9-11.3t7.9-11.4a6.7,6.7,0,0,1,5.9,2.8q2,2.8,2,8.6T220.6,376Z" transform="translate(-121.4 -151.7)"/><path class="cls-1" d="M259,387l-8-28.1h-0.2q0.6,7.2.6,11.1V387H242v-39h14l8.1,27.7h0.2l8-27.7h14.1v39h-9.7V369.9q0-1.3,0-3t0.4-8h-0.2l-7.9,28H259Z" transform="translate(-121.4 -151.7)"/><polygon class="cls-1" points="183.6 284.9 173.3 284.9 173.3 246 196.3 246 196.3 254.4 183.6 254.4 183.6 261.8 195.3 261.8 195.3 270.3 183.6 270.3 183.6 284.9"/><path class="cls-1" d="M348.2,419.7q6.6-3.7,6.6-10.5,0-11.5-15.9-11.5H326.1v39h10.5V422.5h2.7l8.3,14.2h11.9Zm-9.5-5.1h-2v-8.9h2.1q5.4,0,5.4,4T338.6,414.5Z" transform="translate(-121.4 -151.7)"/><rect class="cls-1" x="242" y="246" width="10.6" height="38.98"/><polygon class="cls-1" points="284.1 284.9 261 284.9 261 246 284.1 246 284.1 254.4 271.5 254.4 271.5 260.5 283.2 260.5 283.2 269 271.5 269 271.5 276.3 284.1 276.3 284.1 284.9"/><rect class="cls-1" x="173.3" y="224.6" width="110.6" height="10.59"/><rect class="cls-1" x="32.5" y="274.3" width="132.5" height="10.59"/><path class="cls-1" d="M426.1,163.7V456.4H133.4V163.7H426.1m12-12H121.4V468.4H438.1V151.7h0Z" transform="translate(-121.4 -151.7)"/></svg>