<svg id="Layer_1" data-name="Layer 1" xmlns="http://www.w3.org/2000/svg" viewBox="0 0 79.5 79.5"><defs><style>.cls-1{fill:#fe3035;}</style></defs><title>Instagram</title><rect class="cls-1" x="49.5" y="21.4" width="9.2" height="9.24" rx="2" ry="2"/><path class="cls-1" d="M461.9,357.9a15.1,15.1,0,1,1-29.9-3.5h-4.2v19.9a2,2,0,0,0,2,2h33.9a2,2,0,0,0,2-2V354.4h-4.2A15.1,15.1,0,0,1,461.9,357.9Z" transform="translate(-407 -318.1)"/><circle class="cls-1" cx="39.8" cy="39.8" r="9.3"/><path class="cls-1" d="M407,318.1v79.5h79.5V318.1H407Zm64.4,59.1a4.7,4.7,0,0,1-4.7,4.7H426.9a4.7,4.7,0,0,1-4.7-4.7V338.6a4.7,4.7,0,0,1,4.7-4.7h39.8a4.7,4.7,0,0,1,4.7,4.7v38.6Z" transform="translate(-407 -318.1)"/></svg>