<svg id="Layer_1" data-name="Layer 1" xmlns="http://www.w3.org/2000/svg" viewBox="0 0 79.5 79.5"><defs><style>.cls-1{fill:#fe3035;}</style></defs><title>LinkedIn</title><path class="cls-1" d="M354.9,318.1v79.5h79.5V318.1H354.9Zm24.4,65.6a1.8,1.8,0,0,1-1.8,1.8h-7.8a1.8,1.8,0,0,1-1.8-1.8V350.4a1.8,1.8,0,0,1,1.8-1.8h7.8a1.8,1.8,0,0,1,1.8,1.8v33.3Zm-5.7-40.2a6.7,6.7,0,1,1,6.7-6.6A6.6,6.6,0,0,1,373.5,343.5Zm48.8,16.8v24.5a0.8,0.8,0,0,1-.8.8h-10a0.8,0.8,0,0,1-.8-0.8V364.2a6.4,6.4,0,0,0-6.5-6.4,6.5,6.5,0,0,0-6.4,6.5v20.5a0.8,0.8,0,0,1-.8.8h-9.9a0.8,0.8,0,0,1-.8-0.8V349.3a0.8,0.8,0,0,1,.8-0.8H397a0.8,0.8,0,0,1,.8.8v4.1h0.1l0.6-1a11.2,11.2,0,0,1,9.2-4.8h2a12.6,12.6,0,0,1,12.6,12.6h0Z" transform="translate(-354.9 -318.1)"/></svg>