<svg id="Layer_1" data-name="Layer 1" xmlns="http://www.w3.org/2000/svg" viewBox="0 0 79.5 79.5"><defs><style>.cls-1{fill:#fe3035;}</style></defs><title>Twitter</title><path class="cls-1" d="M248.5,292.1v79.5H328V292.1H248.5Zm63,28.6q0,0.7,0,1.4A34.2,34.2,0,0,1,259,351h0a23.1,23.1,0,0,0,17.6-5c-9.2-.7-11-8.4-11-8.4a11,11,0,0,0,5.3-.2c-10.4-2.4-9.5-11.9-9.5-11.9a12.3,12.3,0,0,0,5.2,1.5c-9.2-8.1-3.4-15.9-3.4-15.9,9.6,11.6,23.7,12.4,24.7,12.5a12,12,0,0,1,20.5-10.9l1.8-.5a41.7,41.7,0,0,0,5.8-2.4c-0.6,3.5-4.9,6.5-5.2,6.7h0a27.8,27.8,0,0,0,6.8-1.8C316.5,316.8,312.2,320.2,311.5,320.7Z" transform="translate(-248.5 -292.1)"/></svg>