<svg id="Layer_1" data-name="Layer 1" xmlns="http://www.w3.org/2000/svg" viewBox="0 0 105.9 82.3"><defs><style>.cls-1,.cls-4{fill:#ffabb5;}.cls-2{fill:#bf0816;}.cls-3,.cls-4{opacity:0.15;}.cls-5{fill:#fe3035;}.cls-6{fill:#fff;}</style></defs><title>Branding</title><rect class="cls-1" x="10.9" y="10.7" width="83.5" height="63.11" rx="2" ry="2"/><rect class="cls-1" x="10.7" y="10.7" width="83.5" height="63.11" rx="1.6" ry="1.6"/><path class="cls-2" d="M342.4,314.2H262.1a2,2,0,0,1-2-2V252.3a2,2,0,0,1,2-2h80.3a2,2,0,0,1,2,2v59.9A2,2,0,0,1,342.4,314.2Zm-80.3-63.1a1.2,1.2,0,0,0-1.2,1.2v59.9a1.2,1.2,0,0,0,1.2,1.2h80.3a1.2,1.2,0,0,0,1.2-1.2V252.3a1.2,1.2,0,0,0-1.2-1.2H262.1Z" transform="translate(-249.6 -240)"/><path class="cls-3" d="M285.4,312.4l-0.2-.2-23.9-23.9-1-1v14.2l12.3,12.3h13.3Z" transform="translate(-249.6 -240)"/><path class="cls-4" d="M250.4,290.6l-0.3-.3a1.8,1.8,0,0,1,0-2.5l0.3-.3A2.1,2.1,0,0,0,250.4,290.6Zm3.2-6.2,0.3-.3a1.7,1.7,0,0,1,2.5,0l0.3,0.3A2.1,2.1,0,0,0,253.6,284.4Z" transform="translate(-249.6 -240)"/><path class="cls-3" d="M343.8,266.8l-8.7-16.1H323.8l2,3.7,0.8,1.4,2,3.7,0.8,1.4,2,3.7,0.8,1.4,2,3.7,0.8,1.4,2,3.7,0.8,1.4,2,3.7,0.8,1.4,2,3.7,0.8,1.4,0.7,1.3V266.8Z" transform="translate(-249.6 -240)"/><g id="_Group_" data-name="&lt;Group&gt;"><g id="_Group_2" data-name="&lt;Group&gt;"><rect id="_Rectangle_" data-name="&lt;Rectangle&gt;" class="cls-5" x="334.4" y="239.7" width="8.8" height="51.66" transform="translate(513.2 98.9) rotate(151.7)"/></g><g id="_Group_3" data-name="&lt;Group&gt;"><path id="_Path_" data-name="&lt;Path&gt;" class="cls-2" d="M328.4,247.9l-3.1,1.7-0.8-1.4,3.1-1.7a0.8,0.8,0,0,1,1.1.3h0A0.8,0.8,0,0,1,328.4,247.9Z" transform="translate(-249.6 -240)"/></g><g id="_Group_4" data-name="&lt;Group&gt;"><path id="_Path_2" data-name="&lt;Path&gt;" class="cls-2" d="M329.9,253.7l-2,1.1-0.8-1.4,2-1.1a0.8,0.8,0,0,1,1.1.3h0A0.8,0.8,0,0,1,329.9,253.7Z" transform="translate(-249.6 -240)"/></g><g id="_Group_5" data-name="&lt;Group&gt;"><path id="_Path_3" data-name="&lt;Path&gt;" class="cls-2" d="M333.9,258.2l-3.1,1.7-0.8-1.4,3.1-1.7a0.8,0.8,0,0,1,1.1.3h0A0.8,0.8,0,0,1,333.9,258.2Z" transform="translate(-249.6 -240)"/></g><g id="_Group_6" data-name="&lt;Group&gt;"><path id="_Path_4" data-name="&lt;Path&gt;" class="cls-2" d="M335.5,264l-2,1.1-0.8-1.4,2-1.1a0.8,0.8,0,0,1,1.1.3h0A0.8,0.8,0,0,1,335.5,264Z" transform="translate(-249.6 -240)"/></g><g id="_Group_7" data-name="&lt;Group&gt;"><path id="_Path_5" data-name="&lt;Path&gt;" class="cls-2" d="M339.4,268.5l-3.1,1.7-0.8-1.4,3.1-1.7a0.8,0.8,0,0,1,1.1.3h0A0.8,0.8,0,0,1,339.4,268.5Z" transform="translate(-249.6 -240)"/></g><g id="_Group_8" data-name="&lt;Group&gt;"><path id="_Path_6" data-name="&lt;Path&gt;" class="cls-2" d="M341,274.2l-2,1.1-0.8-1.4,2-1.1a0.8,0.8,0,0,1,1.1.3h0A0.8,0.8,0,0,1,341,274.2Z" transform="translate(-249.6 -240)"/></g><g id="_Group_9" data-name="&lt;Group&gt;"><path id="_Path_7" data-name="&lt;Path&gt;" class="cls-2" d="M345,278.7l-3.1,1.7L341,279l3.1-1.7a0.8,0.8,0,0,1,1.1.3h0A0.8,0.8,0,0,1,345,278.7Z" transform="translate(-249.6 -240)"/></g><g id="_Group_10" data-name="&lt;Group&gt;"><path id="_Path_8" data-name="&lt;Path&gt;" class="cls-2" d="M346.5,284.5l-2,1.1-0.8-1.4,2-1.1a0.8,0.8,0,0,1,1.1.3h0A0.8,0.8,0,0,1,346.5,284.5Z" transform="translate(-249.6 -240)"/></g><g id="_Group_11" data-name="&lt;Group&gt;"><g id="_Group_12" data-name="&lt;Group&gt;"><path id="_Compound_Path_" data-name="&lt;Compound Path&gt;" class="cls-2" d="M330.4,240.7l24.5,45.5-7.7,4.1-2.5-4.7-0.8-1.4-2-3.7L341,279l-2-3.7-0.8-1.4-2-3.7-0.8-1.4-2-3.7-0.8-1.4-2-3.7-0.8-1.4-2-3.7-0.8-1.4-2-3.7-0.8-1.4-1.8-3.3,7.7-4.1m-0.3-.6-7.7,4.1a0.7,0.7,0,0,0-.3.9l1.8,3.3,0.8,1.4,2,3.7,0.8,1.4,2,3.7,0.8,1.4,2,3.7,0.8,1.4,2,3.7,0.8,1.4,2,3.7,0.8,1.4,2,3.7,0.8,1.4,2,3.7,0.8,1.4,2.5,4.7a0.7,0.7,0,0,0,.9.3l7.7-4.1a0.7,0.7,0,0,0,.3-0.9L331,240.3a0.7,0.7,0,0,0-.9-0.3h0Z" transform="translate(-249.6 -240)"/></g></g></g><g id="_Group_13" data-name="&lt;Group&gt;"><g id="_Group_14" data-name="&lt;Group&gt;"><g id="_Group_15" data-name="&lt;Group&gt;"><rect id="_Rectangle_2" data-name="&lt;Rectangle&gt;" class="cls-5" x="266.3" y="286" width="8.8" height="33.8" transform="translate(426.6 85.6) rotate(135)"/></g><g id="_Group_16" data-name="&lt;Group&gt;"><rect id="_Rectangle_3" data-name="&lt;Rectangle&gt;" class="cls-1" x="268.9" y="286" width="3.4" height="33.8" transform="translate(426.6 85.6) rotate(135)"/></g><g id="_Group_17" data-name="&lt;Group&gt;"><polygon id="_Path_9" data-name="&lt;Path&gt;" class="cls-6" points="36.1 71.7 39.8 81.6 29.9 77.9 36.1 71.7"/></g><g id="_Group_18" data-name="&lt;Group&gt;"><polygon id="_Path_10" data-name="&lt;Path&gt;" class="cls-2" points="39.8 81.6 38.3 77.7 35.9 80.2 39.8 81.6"/></g><g id="_Group_19" data-name="&lt;Group&gt;"><rect id="_Rectangle_4" data-name="&lt;Rectangle&gt;" class="cls-6" x="253.4" y="288.6" width="8.8" height="2.66" transform="translate(395.5 72.8) rotate(135)"/></g><g id="_Group_20" data-name="&lt;Group&gt;"><path id="_Rectangle_5" data-name="&lt;Rectangle&gt;" class="cls-5" d="M250.5,284.3h8.8a0,0,0,0,1,0,0v2.9a2.7,2.7,0,0,1-2.7,2.7h-3.4a2.7,2.7,0,0,1-2.7-2.7v-2.9a0,0,0,0,1,0,0Z" transform="translate(388.4 69.9) rotate(135)"/></g></g><g id="_Group_21" data-name="&lt;Group&gt;"><g id="_Group_22" data-name="&lt;Group&gt;"><path id="_Compound_Path_2" data-name="&lt;Compound Path&gt;" class="cls-2" d="M289.4,321.6l-3.9-1.5h0l-6-2.3L255.6,294l-1.9-1.9-2.7-2.7a1.8,1.8,0,0,1,0-2.5l3.7-3.7a1.8,1.8,0,0,1,2.5,0l2.7,2.7,1.9,1.9,23.9,23.9,3.7,9.9m0.5,0.5a0.7,0.7,0,0,0,.2-0.7l-3.7-9.9-0.2-.2-23.9-23.9-1.9-1.9-2.7-2.7a2.4,2.4,0,0,0-3.4,0l-3.7,3.7a2.4,2.4,0,0,0,0,3.4l2.7,2.7,1.9,1.9L279,318.4l0.2,0.2,6,2.3,3.9,1.5a0.7,0.7,0,0,0,.7-0.2h0Z" transform="translate(-249.6 -240)"/></g></g></g><path class="cls-6" d="M319.3,302.2h-1.5a0.5,0.5,0,0,1,0-1h1v-1a0.5,0.5,0,1,1,1,0v1.5A0.5,0.5,0,0,1,319.3,302.2Z" transform="translate(-249.6 -240)"/><path class="cls-6" d="M315.2,302.2h-2.5a0.5,0.5,0,0,1,0-1h2.5A0.5,0.5,0,0,1,315.2,302.2Z" transform="translate(-249.6 -240)"/><path class="cls-6" d="M310.2,302.2h-1.5a0.5,0.5,0,0,1-.5-0.5v-1.5a0.5,0.5,0,0,1,1,0v1h1A0.5,0.5,0,0,1,310.2,302.2Z" transform="translate(-249.6 -240)"/><path class="cls-6" d="M308.7,298.1a0.5,0.5,0,0,1-.5-0.5V295a0.5,0.5,0,0,1,1,0v2.6A0.5,0.5,0,0,1,308.7,298.1Zm0-5.2a0.5,0.5,0,0,1-.5-0.5v-2.6a0.5,0.5,0,0,1,1,0v2.6A0.5,0.5,0,0,1,308.7,293Z" transform="translate(-249.6 -240)"/><path class="cls-6" d="M308.7,287.8a0.5,0.5,0,0,1-.5-0.5v-1h-1a0.5,0.5,0,0,1,0-1h1.5a0.5,0.5,0,0,1,.5.5v1.5A0.5,0.5,0,0,1,308.7,287.8Z" transform="translate(-249.6 -240)"/><path class="cls-6" d="M304.1,286.3H301a0.5,0.5,0,0,1,0-1h3.1A0.5,0.5,0,0,1,304.1,286.3Z" transform="translate(-249.6 -240)"/><path class="cls-6" d="M296.4,287.8a0.5,0.5,0,0,1-.5-0.5v-1.5a0.5,0.5,0,0,1,.5-0.5h1.5a0.5,0.5,0,0,1,0,1h-1v1A0.5,0.5,0,0,1,296.4,287.8Z" transform="translate(-249.6 -240)"/><path class="cls-6" d="M296.4,298.1a0.5,0.5,0,0,1-.5-0.5V295a0.5,0.5,0,1,1,1,0v2.6A0.5,0.5,0,0,1,296.4,298.1Zm0-5.2a0.5,0.5,0,0,1-.5-0.5v-2.6a0.5,0.5,0,1,1,1,0v2.6A0.5,0.5,0,0,1,296.4,293Z" transform="translate(-249.6 -240)"/><path class="cls-6" d="M296.4,302.2h-1.5a0.5,0.5,0,0,1,0-1h1v-1a0.5,0.5,0,1,1,1,0v1.5A0.5,0.5,0,0,1,296.4,302.2Z" transform="translate(-249.6 -240)"/><path class="cls-6" d="M292.4,302.2h-2.5a0.5,0.5,0,0,1,0-1h2.5A0.5,0.5,0,0,1,292.4,302.2Z" transform="translate(-249.6 -240)"/><path class="cls-6" d="M287.3,302.2h-1.5a0.5,0.5,0,0,1-.5-0.5v-1.5a0.5,0.5,0,1,1,1,0v1h1A0.5,0.5,0,0,1,287.3,302.2Z" transform="translate(-249.6 -240)"/><path class="cls-6" d="M285.8,297.9a0.5,0.5,0,0,1-.5-0.5v-2.8a0.5,0.5,0,0,1,1,0v2.8A0.5,0.5,0,0,1,285.8,297.9Zm0-5.5a0.5,0.5,0,0,1-.5-0.5v-2.8a0.5,0.5,0,1,1,1,0v2.8A0.5,0.5,0,0,1,285.8,292.4Zm0-5.5a0.5,0.5,0,0,1-.5-0.5v-2.8a0.5,0.5,0,0,1,1,0v2.8A0.5,0.5,0,0,1,285.8,286.9Zm0-5.5a0.5,0.5,0,0,1-.5-0.5v-2.8a0.5,0.5,0,0,1,1,0v2.8A0.5,0.5,0,0,1,285.8,281.3Zm0-5.5a0.5,0.5,0,0,1-.5-0.5v-2.8a0.5,0.5,0,0,1,1,0v2.8A0.5,0.5,0,0,1,285.8,275.8Zm0-5.5a0.5,0.5,0,0,1-.5-0.5V267a0.5,0.5,0,0,1,1,0v2.8A0.5,0.5,0,0,1,285.8,270.3Z" transform="translate(-249.6 -240)"/><path class="cls-6" d="M285.8,264.7a0.5,0.5,0,0,1-.5-0.5v-1.5a0.5,0.5,0,0,1,.5-0.5h1.5a0.5,0.5,0,0,1,0,1h-1v1A0.5,0.5,0,0,1,285.8,264.7Z" transform="translate(-249.6 -240)"/><path class="cls-6" d="M292.4,263.2h-2.5a0.5,0.5,0,0,1,0-1h2.5A0.5,0.5,0,0,1,292.4,263.2Z" transform="translate(-249.6 -240)"/><path class="cls-6" d="M296.4,264.7a0.5,0.5,0,0,1-.5-0.5v-1h-1a0.5,0.5,0,0,1,0-1h1.5a0.5,0.5,0,0,1,.5.5v1.5A0.5,0.5,0,0,1,296.4,264.7Z" transform="translate(-249.6 -240)"/><path class="cls-6" d="M296.4,272.4a0.5,0.5,0,0,1-.5-0.5V268a0.5,0.5,0,1,1,1,0v3.8A0.5,0.5,0,0,1,296.4,272.4Z" transform="translate(-249.6 -240)"/><path class="cls-6" d="M297.9,277.7h-1.5a0.5,0.5,0,0,1-.5-0.5v-1.5a0.5,0.5,0,0,1,1,0v1h1A0.5,0.5,0,0,1,297.9,277.7Z" transform="translate(-249.6 -240)"/><path class="cls-6" d="M304.1,277.7H301a0.5,0.5,0,1,1,0-1h3.1A0.5,0.5,0,0,1,304.1,277.7Z" transform="translate(-249.6 -240)"/><path class="cls-6" d="M308.7,277.7h-1.5a0.5,0.5,0,0,1,0-1h1v-1a0.5,0.5,0,0,1,1,0v1.5A0.5,0.5,0,0,1,308.7,277.7Z" transform="translate(-249.6 -240)"/><path class="cls-6" d="M308.7,272.4a0.5,0.5,0,0,1-.5-0.5V268a0.5,0.5,0,0,1,1,0v3.8A0.5,0.5,0,0,1,308.7,272.4Z" transform="translate(-249.6 -240)"/><path class="cls-6" d="M308.7,264.7a0.5,0.5,0,0,1-.5-0.5v-1.5a0.5,0.5,0,0,1,.5-0.5h1.5a0.5,0.5,0,1,1,0,1h-1v1A0.5,0.5,0,0,1,308.7,264.7Z" transform="translate(-249.6 -240)"/><path class="cls-6" d="M315.2,263.2h-2.5a0.5,0.5,0,0,1,0-1h2.5A0.5,0.5,0,0,1,315.2,263.2Z" transform="translate(-249.6 -240)"/><path class="cls-6" d="M319.3,264.7a0.5,0.5,0,0,1-.5-0.5v-1h-1a0.5,0.5,0,0,1,0-1h1.5a0.5,0.5,0,0,1,.5.5v1.5A0.5,0.5,0,0,1,319.3,264.7Z" transform="translate(-249.6 -240)"/><path class="cls-6" d="M319.3,297.9a0.5,0.5,0,0,1-.5-0.5v-2.8a0.5,0.5,0,0,1,1,0v2.8A0.5,0.5,0,0,1,319.3,297.9Zm0-5.5a0.5,0.5,0,0,1-.5-0.5v-2.8a0.5,0.5,0,1,1,1,0v2.8A0.5,0.5,0,0,1,319.3,292.4Zm0-5.5a0.5,0.5,0,0,1-.5-0.5v-2.8a0.5,0.5,0,0,1,1,0v2.8A0.5,0.5,0,0,1,319.3,286.9Zm0-5.5a0.5,0.5,0,0,1-.5-0.5v-2.8a0.5,0.5,0,0,1,1,0v2.8A0.5,0.5,0,0,1,319.3,281.3Zm0-5.5a0.5,0.5,0,0,1-.5-0.5v-2.8a0.5,0.5,0,0,1,1,0v2.8A0.5,0.5,0,0,1,319.3,275.8Zm0-5.5a0.5,0.5,0,0,1-.5-0.5V267a0.5,0.5,0,0,1,1,0v2.8A0.5,0.5,0,0,1,319.3,270.3Z" transform="translate(-249.6 -240)"/></svg>