<svg id="Layer_1" data-name="Layer 1" xmlns="http://www.w3.org/2000/svg" viewBox="0 0 141.5 89"><defs><style>.cls-1{fill:#fe3035;}.cls-2{fill:#bf0816;}.cls-3{fill:#fff;}.cls-4{fill:#f22534;}.cls-5{fill:#ffabb5;}.cls-6{opacity:0.15;}</style></defs><title>Product_Design</title><text x="-225.1" y="-241.5"/><g id="_Rectangle_" data-name="&lt;Rectangle&gt;"><g id="_Group_" data-name="&lt;Group&gt;"><rect id="_Path_" data-name="&lt;Path&gt;" class="cls-1" x="12.4" y="0.5" width="116.5" height="70.57" rx="2.4" ry="2.4"/></g><g id="_Group_2" data-name="&lt;Group&gt;"><g id="_Group_3" data-name="&lt;Group&gt;"><path id="_Compound_Path_" data-name="&lt;Compound Path&gt;" class="cls-2" d="M351.6,242.5a1.9,1.9,0,0,1,1.9,1.9v65.8a1.9,1.9,0,0,1-1.9,1.9H239.8a1.9,1.9,0,0,1-1.9-1.9V244.4a1.9,1.9,0,0,1,1.9-1.9H351.6m0-1H239.8a2.9,2.9,0,0,0-2.9,2.9v65.8a2.9,2.9,0,0,0,2.9,2.9H351.6a2.9,2.9,0,0,0,2.9-2.9V244.4a2.9,2.9,0,0,0-2.9-2.9h0Z" transform="translate(-225.1 -241.5)"/></g></g></g><g id="_Rectangle_2" data-name="&lt;Rectangle&gt;"><g id="_Group_4" data-name="&lt;Group&gt;"><rect id="_Path_2" data-name="&lt;Path&gt;" class="cls-3" x="12.6" y="6.3" width="116.1" height="58.95"/></g><g id="_Group_5" data-name="&lt;Group&gt;"><path id="_Compound_Path_2" data-name="&lt;Compound Path&gt;" class="cls-2" d="M353.1,248.4v57.8H238.3V248.4H353.1m1.3-1.1H237v60.1H354.4V247.2h0Z" transform="translate(-225.1 -241.5)"/></g></g><g id="_Rectangle_3" data-name="&lt;Rectangle&gt;"><g id="_Group_6" data-name="&lt;Group&gt;"><path id="_Path_3" data-name="&lt;Path&gt;" class="cls-1" d="M282.9,325a0.5,0.5,0,0,1-.5-0.5l6-11.5a0.5,0.5,0,0,1,.5-0.5h13.6a0.5,0.5,0,0,1,.5.5l6,11.5a0.5,0.5,0,0,1-.5.5H282.9Z" transform="translate(-225.1 -241.5)"/></g><g id="_Group_7" data-name="&lt;Group&gt;"><g id="_Group_8" data-name="&lt;Group&gt;"><path id="_Compound_Path_3" data-name="&lt;Compound Path&gt;" class="cls-2" d="M302.5,313.1l6,11.5H282.9l6-11.5h13.6m0-1H288.9a1,1,0,0,0-1,1l-6,11.5a1,1,0,0,0,1,1h25.6a1,1,0,0,0,1-1l-6-11.5a1,1,0,0,0-1-1h0Z" transform="translate(-225.1 -241.5)"/></g></g></g><g id="_Group_9" data-name="&lt;Group&gt;"><polygon id="_Path_4" data-name="&lt;Path&gt;" class="cls-4" points="79.2 74.9 62.1 74.9 63.8 71.6 77.4 71.6 79.2 74.9"/></g><g id="_Group_10" data-name="&lt;Group&gt;"><circle id="_Path_5" data-name="&lt;Path&gt;" class="cls-2" cx="70.6" cy="3.5" r="1.3"/></g><g id="_Group_11" data-name="&lt;Group&gt;"><path id="_Rectangle_4" data-name="&lt;Rectangle&gt;" class="cls-4" d="M53.1,83h35a4.3,4.3,0,0,1,4.3,4.3v1a0,0,0,0,1,0,0H48.8a0,0,0,0,1,0,0v-1A4.3,4.3,0,0,1,53.1,83Z"/><path id="_Compound_Path_4" data-name="&lt;Compound Path&gt;" class="cls-2" d="M317.5,330.3H273.9a0.5,0.5,0,0,1-.5-0.5v-1a4.8,4.8,0,0,1,4.8-4.8h35a4.8,4.8,0,0,1,4.8,4.8v1A0.5,0.5,0,0,1,317.5,330.3Zm-43.1-1H317a4.3,4.3,0,0,0-4.3-4.3h-34a4.3,4.3,0,0,0-4.3,4.3h0Z" transform="translate(-225.1 -241.5)"/></g><g id="_Group_12" data-name="&lt;Group&gt;"><rect id="_Rectangle_5" data-name="&lt;Rectangle&gt;" class="cls-5" x="18.8" y="11.6" width="103.8" height="27.03"/><path id="_Compound_Path_5" data-name="&lt;Compound Path&gt;" class="cls-2" d="M347.8,280.7H243.9a0.5,0.5,0,0,1-.6-0.5v-27a0.5,0.5,0,0,1,.6-0.5H347.8a0.5,0.5,0,0,1,.6.5v27A0.5,0.5,0,0,1,347.8,280.7Zm-103.3-1H347.2v-26H244.5v26Z" transform="translate(-225.1 -241.5)"/></g><g id="_Group_13" data-name="&lt;Group&gt;"><path id="_Path_6" data-name="&lt;Path&gt;" class="cls-2" d="M319.6,285.7H273.5a0.5,0.5,0,0,1,0-1h46.1A0.5,0.5,0,0,1,319.6,285.7Z" transform="translate(-225.1 -241.5)"/></g><g id="_Group_14" data-name="&lt;Group&gt;"><path id="_Path_7" data-name="&lt;Path&gt;" class="cls-2" d="M319.6,295H273.5a0.5,0.5,0,0,1,0-1h46.1A0.5,0.5,0,0,1,319.6,295Z" transform="translate(-225.1 -241.5)"/></g><g id="_Group_15" data-name="&lt;Group&gt;"><path id="_Path_8" data-name="&lt;Path&gt;" class="cls-2" d="M316.5,290.3H276.7a0.5,0.5,0,0,1,0-1h39.8A0.5,0.5,0,1,1,316.5,290.3Z" transform="translate(-225.1 -241.5)"/></g><g id="_Group_16" data-name="&lt;Group&gt;"><path id="_Path_9" data-name="&lt;Path&gt;" class="cls-1" d="M302.2,301.7H291a1.6,1.6,0,0,1-1.6-1.6h0a1.6,1.6,0,0,1,1.6-1.6h11.2a1.6,1.6,0,0,1,1.6,1.6h0A1.6,1.6,0,0,1,302.2,301.7Z" transform="translate(-225.1 -241.5)"/></g><path class="cls-6" d="M248.6,313h8.7V298.1h0v-2.7a3.2,3.2,0,0,0-3.2-3.2H237.4a3.2,3.2,0,0,0-3.2,3.2v2.7h0v26.3h0v2.7a3.2,3.2,0,0,0,3.2,3.2h11.2V313Z" transform="translate(-225.1 -241.5)"/><g id="_Group_17" data-name="&lt;Group&gt;"><g id="_Group_18" data-name="&lt;Group&gt;"><rect id="_Rectangle_6" data-name="&lt;Rectangle&gt;" class="cls-1" x="7.6" y="51.2" width="22.1" height="37.31" rx="3.3" ry="3.3"/><path id="_Compound_Path_6" data-name="&lt;Compound Path&gt;" class="cls-2" d="M252.1,330.4H235.5a3.2,3.2,0,0,1-3.2-3.2V295.4a3.2,3.2,0,0,1,3.2-3.2h16.6a3.2,3.2,0,0,1,3.2,3.2v31.8A3.2,3.2,0,0,1,252.1,330.4Zm-16.6-37.3a2.3,2.3,0,0,0-2.3,2.3v31.8a2.3,2.3,0,0,0,2.3,2.3h16.6a2.3,2.3,0,0,0,2.3-2.3V295.4a2.3,2.3,0,0,0-2.3-2.3H235.5Z" transform="translate(-225.1 -241.5)"/></g><g id="_Rectangle_7" data-name="&lt;Rectangle&gt;"><g id="_Group_19" data-name="&lt;Group&gt;"><rect id="_Path_10" data-name="&lt;Path&gt;" class="cls-3" x="7.8" y="56.7" width="21.8" height="26.31"/></g><g id="_Group_20" data-name="&lt;Group&gt;"><rect id="_Path_11" data-name="&lt;Path&gt;" class="cls-3" x="7.8" y="56.7" width="21.8" height="26.31"/><path id="_Compound_Path_7" data-name="&lt;Compound Path&gt;" class="cls-2" d="M254.7,324.9H232.9a0.5,0.5,0,0,1-.6-0.4V298.1a0.5,0.5,0,0,1,.6-0.4h21.8a0.5,0.5,0,0,1,.6.4v26.3A0.5,0.5,0,0,1,254.7,324.9Zm-21.2-.8h20.7V298.6H233.5V324Z" transform="translate(-225.1 -241.5)"/></g></g><g id="_Group_21" data-name="&lt;Group&gt;"><circle id="_Path_12" data-name="&lt;Path&gt;" class="cls-2" cx="18.7" cy="85.8" r="1.2"/></g><g id="_Group_22" data-name="&lt;Group&gt;"><path id="_Path_13" data-name="&lt;Path&gt;" class="cls-2" d="M245.6,296.2H242a0.7,0.7,0,0,1-.7-0.7h0a0.7,0.7,0,0,1,.7-0.7h3.5a0.7,0.7,0,0,1,.7.7h0A0.7,0.7,0,0,1,245.6,296.2Z" transform="translate(-225.1 -241.5)"/></g><g id="_Group_23" data-name="&lt;Group&gt;"><rect id="_Rectangle_8" data-name="&lt;Rectangle&gt;" class="cls-5" x="13.5" y="59.5" width="10.3" height="9.02"/><path id="_Compound_Path_8" data-name="&lt;Compound Path&gt;" class="cls-2" d="M249,310.5H238.6a0.4,0.4,0,0,1-.4-0.4v-9a0.4,0.4,0,0,1,.4-0.4H249a0.4,0.4,0,0,1,.4.4v9A0.4,0.4,0,0,1,249,310.5Zm-9.9-.8h9.5v-8.2h-9.5v8.2Z" transform="translate(-225.1 -241.5)"/></g><g id="_Group_24" data-name="&lt;Group&gt;"><path id="_Path_14" data-name="&lt;Path&gt;" class="cls-2" d="M249,313.4H238.6a0.4,0.4,0,0,1,0-.8H249A0.4,0.4,0,0,1,249,313.4Z" transform="translate(-225.1 -241.5)"/></g><g id="_Group_25" data-name="&lt;Group&gt;"><path id="_Path_15" data-name="&lt;Path&gt;" class="cls-2" d="M249,318.4H238.6a0.4,0.4,0,1,1,0-.8H249A0.4,0.4,0,0,1,249,318.4Z" transform="translate(-225.1 -241.5)"/></g><g id="_Group_26" data-name="&lt;Group&gt;"><path id="_Path_16" data-name="&lt;Path&gt;" class="cls-2" d="M247.4,315.9h-7.2a0.4,0.4,0,0,1,0-.8h7.2A0.4,0.4,0,0,1,247.4,315.9Z" transform="translate(-225.1 -241.5)"/></g><g id="_Group_27" data-name="&lt;Group&gt;"><path id="_Path_17" data-name="&lt;Path&gt;" class="cls-1" d="M247.1,322h-6.5a0.8,0.8,0,0,1-.8-0.8h0a0.8,0.8,0,0,1,.8-0.8h6.5a0.8,0.8,0,0,1,.8.8h0A0.8,0.8,0,0,1,247.1,322Z" transform="translate(-225.1 -241.5)"/></g></g><path class="cls-6" d="M237.1,314.7h-1.1V313a1.7,1.7,0,0,0-1.7-1.7h-3.3a1.7,1.7,0,0,0-1.7,1.7v1.7h-1.2a1.7,1.7,0,0,0-1.7,1.7v9.1a1.7,1.7,0,0,0,1.7,1.7h1.2v1.5a1.7,1.7,0,0,0,1.7,1.7h3.3a1.7,1.7,0,0,0,1.7-1.7v-1.5h1.1a1.7,1.7,0,0,0,1.7-1.7v-9.1A1.7,1.7,0,0,0,237.1,314.7Z" transform="translate(-225.1 -241.5)"/><g id="_Group_28" data-name="&lt;Group&gt;"><path class="cls-1" d="M232.6,311.5h-2.5a1.9,1.9,0,0,0-1.9,1.9v4.3a1.9,1.9,0,0,0,1.9,1.9h2.5a1.9,1.9,0,0,0,1.9-1.9v-4.3A1.9,1.9,0,0,0,232.6,311.5Zm1.6,6.6a1.3,1.3,0,0,1-1.3,1.3h-3.3a1.3,1.3,0,0,1-1.3-1.3V313a1.3,1.3,0,0,1,1.3-1.3H233a1.3,1.3,0,0,1,1.3,1.3v5.1Z" transform="translate(-225.1 -241.5)"/><path id="_Compound_Path_9" data-name="&lt;Compound Path&gt;" class="cls-2" d="M233,311.3h-3.3A1.7,1.7,0,0,0,228,313v5.1a1.7,1.7,0,0,0,1.7,1.7H233a1.7,1.7,0,0,0,1.7-1.7V313A1.7,1.7,0,0,0,233,311.3Zm1.3,6.8a1.3,1.3,0,0,1-1.3,1.3h-3.3a1.3,1.3,0,0,1-1.3-1.3V313a1.3,1.3,0,0,1,1.3-1.3H233a1.3,1.3,0,0,1,1.3,1.3v5.1Z" transform="translate(-225.1 -241.5)"/><path class="cls-1" d="M234.3,313v5.1a1.3,1.3,0,0,1-1.3,1.3h-3.3a1.3,1.3,0,0,1-1.3-1.3V313a1.3,1.3,0,0,1,1.3-1.3H233A1.3,1.3,0,0,1,234.3,313Z" transform="translate(-225.1 -241.5)"/></g><g id="_Group_29" data-name="&lt;Group&gt;"><path class="cls-1" d="M232.6,322.2h-2.5a1.9,1.9,0,0,0-1.9,1.9v4.3a1.9,1.9,0,0,0,1.9,1.9h2.5a1.9,1.9,0,0,0,1.9-1.9V324A1.9,1.9,0,0,0,232.6,322.2Zm1.6,6.6A1.3,1.3,0,0,1,233,330h-3.3a1.3,1.3,0,0,1-1.3-1.3v-5.1a1.3,1.3,0,0,1,1.3-1.3H233a1.3,1.3,0,0,1,1.3,1.3v5.1Z" transform="translate(-225.1 -241.5)"/><path id="_Compound_Path_10" data-name="&lt;Compound Path&gt;" class="cls-2" d="M233,321.9h-3.3a1.7,1.7,0,0,0-1.7,1.7v5.1a1.7,1.7,0,0,0,1.7,1.7H233a1.7,1.7,0,0,0,1.7-1.7v-5.1A1.7,1.7,0,0,0,233,321.9Zm1.3,6.8A1.3,1.3,0,0,1,233,330h-3.3a1.3,1.3,0,0,1-1.3-1.3v-5.1a1.3,1.3,0,0,1,1.3-1.3H233a1.3,1.3,0,0,1,1.3,1.3v5.1Z" transform="translate(-225.1 -241.5)"/><path class="cls-1" d="M234.3,323.7v5.1A1.3,1.3,0,0,1,233,330h-3.3a1.3,1.3,0,0,1-1.3-1.3v-5.1a1.3,1.3,0,0,1,1.3-1.3H233A1.3,1.3,0,0,1,234.3,323.7Z" transform="translate(-225.1 -241.5)"/></g><g id="_Group_30" data-name="&lt;Group&gt;"><path class="cls-1" d="M235.4,315h-8.2a1.9,1.9,0,0,0-1.9,1.9v8.3a1.9,1.9,0,0,0,1.9,1.9h8.2a1.9,1.9,0,0,0,1.9-1.9v-8.3A1.9,1.9,0,0,0,235.4,315Zm1.6,10.6a1.3,1.3,0,0,1-1.3,1.3h-9a1.3,1.3,0,0,1-1.3-1.3v-9.1a1.3,1.3,0,0,1,1.3-1.3h9a1.3,1.3,0,0,1,1.3,1.3v9.1Z" transform="translate(-225.1 -241.5)"/><path id="_Compound_Path_11" data-name="&lt;Compound Path&gt;" class="cls-2" d="M235.8,314.7h-9a1.7,1.7,0,0,0-1.7,1.7v9.1a1.7,1.7,0,0,0,1.7,1.7h9a1.7,1.7,0,0,0,1.7-1.7v-9.1A1.7,1.7,0,0,0,235.8,314.7Zm1.3,10.8a1.3,1.3,0,0,1-1.3,1.3h-9a1.3,1.3,0,0,1-1.3-1.3v-9.1a1.3,1.3,0,0,1,1.3-1.3h9a1.3,1.3,0,0,1,1.3,1.3v9.1Z" transform="translate(-225.1 -241.5)"/><path class="cls-1" d="M237.1,316.5v9.1a1.3,1.3,0,0,1-1.3,1.3h-9a1.3,1.3,0,0,1-1.3-1.3v-9.1a1.3,1.3,0,0,1,1.3-1.3h9A1.3,1.3,0,0,1,237.1,316.5Z" transform="translate(-225.1 -241.5)"/><rect class="cls-3" x="1.5" y="74.8" width="9.4" height="9.54" rx="1.1" ry="1.1"/></g><g id="_Group_31" data-name="&lt;Group&gt;"><rect id="_Rectangle_9" data-name="&lt;Rectangle&gt;" class="cls-5" x="4.3" y="76.9" width="3.9" height="3.37"/><path id="_Compound_Path_12" data-name="&lt;Compound Path&gt;" class="cls-2" d="M233.2,321.9h-3.9l-0.2-.2v-3.4l0.2-.2h3.9l0.2,0.2v3.4Zm-3.7-.3h3.5v-3.1h-3.5v3.1Z" transform="translate(-225.1 -241.5)"/></g><g id="_Group_32" data-name="&lt;Group&gt;"><path id="_Path_18" data-name="&lt;Path&gt;" class="cls-1" d="M233.1,323.6h-3.5a0.4,0.4,0,0,1-.4-0.4h0a0.4,0.4,0,0,1,.4-0.4h3.5a0.4,0.4,0,0,1,.4.4h0A0.4,0.4,0,0,1,233.1,323.6Z" transform="translate(-225.1 -241.5)"/></g><path class="cls-6" d="M364.9,274.5v-2.8a3.4,3.4,0,0,0-3.4-3.4H323.1a3.4,3.4,0,0,0-3.4,3.4V313h10.6v17.3h31.1a3.4,3.4,0,0,0,3.4-3.4v-4.4h0V274.6h0Z" transform="translate(-225.1 -241.5)"/><g id="_Group_33" data-name="&lt;Group&gt;"><g id="_Group_34" data-name="&lt;Group&gt;"><rect id="_Rectangle_10" data-name="&lt;Rectangle&gt;" class="cls-1" x="96.9" y="27.2" width="44.2" height="61.19" rx="3.1" ry="3.1"/><path id="_Compound_Path_13" data-name="&lt;Compound Path&gt;" class="cls-2" d="M363.3,330.4H324.9a3.4,3.4,0,0,1-3.4-3.4V271.6a3.4,3.4,0,0,1,3.4-3.4h38.4a3.4,3.4,0,0,1,3.4,3.4V327A3.4,3.4,0,0,1,363.3,330.4Zm-38.4-61.2a2.4,2.4,0,0,0-2.4,2.4V327a2.4,2.4,0,0,0,2.4,2.4h38.4a2.4,2.4,0,0,0,2.4-2.4V271.6a2.4,2.4,0,0,0-2.4-2.4H324.9Z" transform="translate(-225.1 -241.5)"/></g><g id="_Rectangle_11" data-name="&lt;Rectangle&gt;"><g id="_Group_35" data-name="&lt;Group&gt;"><rect id="_Path_19" data-name="&lt;Path&gt;" class="cls-3" x="97" y="33.1" width="43.9" height="47.95"/><path id="_Compound_Path_14" data-name="&lt;Compound Path&gt;" class="cls-2" d="M366,323H322.2a0.6,0.6,0,0,1-.6-0.5V274.6a0.6,0.6,0,0,1,.6-0.5H366a0.6,0.6,0,0,1,.6.5v47.9A0.6,0.6,0,0,1,366,323Zm-43.2-.9h42.6V275H322.8v47Z" transform="translate(-225.1 -241.5)"/></g></g><g id="_Group_36" data-name="&lt;Group&gt;"><circle id="_Path_20" data-name="&lt;Path&gt;" class="cls-2" cx="119" cy="84.6" r="1.3"/></g><g id="_Group_37" data-name="&lt;Group&gt;"><circle id="_Path_21" data-name="&lt;Path&gt;" class="cls-2" cx="119" cy="30.3" r="0.7"/></g><g id="_Group_38" data-name="&lt;Group&gt;"><rect id="_Rectangle_12" data-name="&lt;Rectangle&gt;" class="cls-5" x="106" y="40.1" width="25.9" height="15.75"/><path id="_Compound_Path_15" data-name="&lt;Compound Path&gt;" class="cls-2" d="M357,297.8H331.1a0.5,0.5,0,0,1-.5-0.5V281.6a0.5,0.5,0,0,1,.5-0.5H357a0.5,0.5,0,0,1,.5.5v15.7A0.5,0.5,0,0,1,357,297.8Zm-25.4-1h24.9V282.1H331.6v14.7Z" transform="translate(-225.1 -241.5)"/></g><g id="_Group_39" data-name="&lt;Group&gt;"><path id="_Path_22" data-name="&lt;Path&gt;" class="cls-2" d="M357.1,302.3h-26a0.5,0.5,0,1,1,0-1h26A0.5,0.5,0,1,1,357.1,302.3Z" transform="translate(-225.1 -241.5)"/></g><g id="_Group_40" data-name="&lt;Group&gt;"><path id="_Path_23" data-name="&lt;Path&gt;" class="cls-2" d="M357.1,309.9h-26a0.5,0.5,0,1,1,0-1h26A0.5,0.5,0,1,1,357.1,309.9Z" transform="translate(-225.1 -241.5)"/></g><g id="_Group_41" data-name="&lt;Group&gt;"><path id="_Path_24" data-name="&lt;Path&gt;" class="cls-2" d="M353.7,305.9H334.5a0.5,0.5,0,0,1,0-1h19.1A0.5,0.5,0,0,1,353.7,305.9Z" transform="translate(-225.1 -241.5)"/></g><g id="_Group_42" data-name="&lt;Group&gt;"><path id="_Path_25" data-name="&lt;Path&gt;" class="cls-1" d="M348.9,315.8h-9.6a1.4,1.4,0,0,1-1.4-1.4h0a1.4,1.4,0,0,1,1.4-1.4h9.6a1.4,1.4,0,0,1,1.4,1.4h0A1.4,1.4,0,0,1,348.9,315.8Z" transform="translate(-225.1 -241.5)"/></g></g></svg>