<svg id="Layer_1" data-name="Layer 1" xmlns="http://www.w3.org/2000/svg" viewBox="0 0 131 92"><defs><style>.cls-1{fill:#fe3035;}.cls-2{fill:#bf0816;}.cls-3{opacity:0.15;}.cls-4{fill:#ffabb5;}.cls-5{fill:#fff;}</style></defs><title>Product_Development</title><text x="-313.4" y="-264.6"/><path class="cls-1" d="M365.6,318.8h-2.3a22.4,22.4,0,0,0-2.9-7.1l1.6-1.6a2.6,2.6,0,0,0,0-3.6l-3.6-3.6a2.6,2.6,0,0,0-3.6,0l-1.6,1.6-0.4-.2a22.5,22.5,0,0,0-6.7-2.7v-2.3a2.5,2.5,0,0,0-2.5-2.5h-5.1a2.5,2.5,0,0,0-2.5,2.5v2.3a22.7,22.7,0,0,0-7.1,2.9l-1.6-1.6a2.6,2.6,0,0,0-3.6,0l-3.6,3.6a2.5,2.5,0,0,0,0,3.6l1.6,1.6a22.8,22.8,0,0,0-2.9,7.1h-2.3a2.6,2.6,0,0,0-2.5,2.6v5.1a2.5,2.5,0,0,0,2.5,2.5h2.3a22.6,22.6,0,0,0,2.9,7.1l-1.6,1.6a2.5,2.5,0,0,0,0,3.6l3.6,3.6a2.6,2.6,0,0,0,3.6,0l1.6-1.6a22.9,22.9,0,0,0,7.1,2.9v2.3a2.5,2.5,0,0,0,2.5,2.5h5.1a2.5,2.5,0,0,0,2.5-2.5v-2.3a22.7,22.7,0,0,0,6.7-2.7l0.4-.2,1.6,1.6a2.6,2.6,0,0,0,3.6,0l3.6-3.6a2.6,2.6,0,0,0,0-3.6l-1.6-1.6a22.2,22.2,0,0,0,2.8-6.6V329h2.3a2.6,2.6,0,0,0,2.6-2.5v-5.1A2.6,2.6,0,0,0,365.6,318.8Zm-11.9,5.1A12.7,12.7,0,0,1,341,336.6l-2-.2a12.7,12.7,0,0,1,0-25.1l2-.2A12.7,12.7,0,0,1,353.7,323.9Z" transform="translate(-313.4 -264.6)"/><path class="cls-2" d="M352.8,318a13.2,13.2,0,0,0-11.8-7.3l-2,.2a13.2,13.2,0,0,0,0,26.1l2,0.2a13.2,13.2,0,0,0,11.8-7.3A13.2,13.2,0,0,0,352.8,318ZM341,336.1l-2-.2a12.2,12.2,0,0,1,0-24.1l2-.2a12.2,12.2,0,0,1,11.8,9.2,12.1,12.1,0,0,1,0,6.1A12.2,12.2,0,0,1,341,336.1ZM352.8,318a13.2,13.2,0,0,0-11.8-7.3l-2,.2a13.2,13.2,0,0,0,0,26.1l2,0.2a13.2,13.2,0,0,0,11.8-7.3A13.2,13.2,0,0,0,352.8,318ZM341,336.1l-2-.2a12.2,12.2,0,0,1,0-24.1l2-.2a12.2,12.2,0,0,1,11.8,9.2,12.1,12.1,0,0,1,0,6.1A12.2,12.2,0,0,1,341,336.1Zm24.6-17.8h-1.9a23.1,23.1,0,0,0-2.7-6.5l1.3-1.3a3,3,0,0,0,0-4.3l-3.6-3.6a3.2,3.2,0,0,0-4.3,0l-1.3,1.3-0.3-.2a23.1,23.1,0,0,0-6.2-2.5v-1.9a3,3,0,0,0-3-3h-5.1a3,3,0,0,0-3,3v1.9a23,23,0,0,0-6.5,2.7l-1.3-1.3a3.2,3.2,0,0,0-4.3,0l-3.6,3.6a3.1,3.1,0,0,0,0,4.3l1.3,1.3a23,23,0,0,0-2.7,6.5h-1.9a3,3,0,0,0-3,3.1v5.1a3,3,0,0,0,3,3h1.9A23.1,23.1,0,0,0,321,336l-1.3,1.3a3.1,3.1,0,0,0,0,4.3l3.6,3.6a3.1,3.1,0,0,0,4.3,0l1.3-1.3a23.1,23.1,0,0,0,6.5,2.7v1.9a3.1,3.1,0,0,0,3,3h5.9a3,3,0,0,0,2.3-2.9v-1.9a23.1,23.1,0,0,0,6.2-2.5l0.3-.2,1.3,1.3a3.2,3.2,0,0,0,4.3,0l3.6-3.6a3,3,0,0,0,0-4.3L361,336a23.5,23.5,0,0,0,2.7-6.4h1.9a3.1,3.1,0,0,0,3.1-3v-5.1A3.1,3.1,0,0,0,365.6,318.3Zm2.1,8.1a2.1,2.1,0,0,1-2.1,2h-2.7l-0.2.8a21.9,21.9,0,0,1-2.8,6.5l-0.2.3,1.9,1.9a2,2,0,0,1,.6,1.4,2,2,0,0,1-.6,1.4l-3.6,3.6a2.2,2.2,0,0,1-2.9,0l-1.9-1.9-0.3.2h-0.1a21.8,21.8,0,0,1-6.9,2.8h-0.4v2.7a2.1,2.1,0,0,1-2,2h-5.1a2.1,2.1,0,0,1-2-2v-2.7H336a22.2,22.2,0,0,1-6.9-2.9l-0.3-.2-1.9,1.9a2.1,2.1,0,0,1-2.9,0l-3.6-3.6a2,2,0,0,1,0-2.9l1.9-1.9-0.2-.3a22.3,22.3,0,0,1-2.9-6.9v-0.4h-2.7a2,2,0,0,1-2-2v-5.1a2,2,0,0,1,2-2.1h2.7V319a22.3,22.3,0,0,1,2.9-6.9l0.2-.3-1.9-1.9a2,2,0,0,1,0-2.9l3.6-3.6a2.2,2.2,0,0,1,2.9,0l1.9,1.9,0.3-.2a22.1,22.1,0,0,1,6.9-2.9h0.4v-2.7a2,2,0,0,1,2-2h5.1a2,2,0,0,1,2,2V302H346a21.8,21.8,0,0,1,6.9,2.8h0.1l0.3,0.2,1.9-1.9a2.1,2.1,0,0,1,2.9,0l3.6,3.6a2,2,0,0,1,0,2.9l-1.9,1.9L360,312a22.2,22.2,0,0,1,2.9,6.9v0.4h2.7a2.1,2.1,0,0,1,2.1,2.1v5.1ZM341,310.7l-2,.2a13.2,13.2,0,0,0,0,26.1l2,0.2a13.2,13.2,0,0,0,11.8-7.3,13.2,13.2,0,0,0,0-11.8A13.2,13.2,0,0,0,341,310.7ZM352.8,327a12.2,12.2,0,0,1-11.8,9.2l-2-.2a12.2,12.2,0,0,1,0-24.1l2-.2a12.2,12.2,0,0,1,11.8,9.2A12.1,12.1,0,0,1,352.8,327Z" transform="translate(-313.4 -264.6)"/><path class="cls-2" d="M352.8,313a16,16,0,0,0-11.8-5.2h-2a16.1,16.1,0,0,0,0,32h2A16.1,16.1,0,0,0,352.8,313ZM341,336.6l-2-.2a12.7,12.7,0,0,1,0-25.1l2-.2A12.7,12.7,0,0,1,341,336.6Z" transform="translate(-313.4 -264.6)"/><path class="cls-3" d="M352.8,296.3v24.6a12.2,12.2,0,0,0-11.8-9.2l-2,.2V296.3h13.8Z" transform="translate(-313.4 -264.6)"/><path class="cls-3" d="M352.8,327v24.5H339V336l2,0.2A12.2,12.2,0,0,0,352.8,327Z" transform="translate(-313.4 -264.6)"/><g id="_Group_" data-name="&lt;Group&gt;"><path id="_Path_" data-name="&lt;Path&gt;" class="cls-4" d="M443.9,348.4V281.1H341.1v67.3a2.7,2.7,0,0,0,2.7,2.7h97.5A2.7,2.7,0,0,0,443.9,348.4Z" transform="translate(-313.4 -264.6)"/><path id="_Path_2" data-name="&lt;Path&gt;" class="cls-5" d="M443.9,348.4V281.1H392.5v69.9h48.7A2.7,2.7,0,0,0,443.9,348.4Z" transform="translate(-313.4 -264.6)"/><path id="_Compound_Path_" data-name="&lt;Compound Path&gt;" class="cls-2" d="M441.2,351.6H343.8a3.2,3.2,0,0,1-3.2-3.2V280.6H444.4v67.8A3.2,3.2,0,0,1,441.2,351.6Zm-99.6-69.9v66.8a2.2,2.2,0,0,0,2.2,2.2h97.5a2.2,2.2,0,0,0,2.2-2.2V281.6H341.6Z" transform="translate(-313.4 -264.6)"/></g><g id="_Group_2" data-name="&lt;Group&gt;"><path id="_Rectangle_" data-name="&lt;Rectangle&gt;" class="cls-1" d="M30.4,8.5h97.5a2.7,2.7,0,0,1,2.7,2.7v5.3a0,0,0,0,1,0,0H27.7a0,0,0,0,1,0,0V11.2A2.7,2.7,0,0,1,30.4,8.5Z"/><path id="_Compound_Path_2" data-name="&lt;Compound Path&gt;" class="cls-2" d="M444.4,281.6H340.6v-5.8a3.2,3.2,0,0,1,3.2-3.2h97.5a3.2,3.2,0,0,1,3.2,3.2v5.8Zm-102.8-1H443.4v-4.8a2.2,2.2,0,0,0-2.2-2.2H343.8a2.2,2.2,0,0,0-2.2,2.2v4.8Z" transform="translate(-313.4 -264.6)"/></g><g id="_Group_3" data-name="&lt;Group&gt;"><circle id="_Path_3" data-name="&lt;Path&gt;" class="cls-2" cx="34.4" cy="12.5" r="1.3"/></g><g id="_Group_4" data-name="&lt;Group&gt;"><circle id="_Path_4" data-name="&lt;Path&gt;" class="cls-2" cx="38.4" cy="12.5" r="1.3"/></g><g id="_Group_5" data-name="&lt;Group&gt;"><circle id="_Path_5" data-name="&lt;Path&gt;" class="cls-2" cx="42.5" cy="12.5" r="1.3"/></g><rect class="cls-2" x="36.6" y="25.2" width="19.3" height="2.09" rx="1" ry="1"/><rect class="cls-5" x="59.6" y="25.2" width="9.9" height="2.09" rx="1" ry="1"/><rect class="cls-2" x="363.5" y="304.6" width="29" height="2.09" rx="1" ry="1" transform="translate(442.6 346.6) rotate(-180)"/><rect class="cls-1" x="350" y="304.6" width="9.9" height="2.09" rx="1" ry="1" transform="translate(396.5 346.6) rotate(180)"/><rect class="cls-5" x="36.6" y="35" width="24.1" height="2.09" rx="1" ry="1"/><rect class="cls-1" x="64.3" y="35" width="12.5" height="2.09" rx="1" ry="1"/><rect class="cls-2" x="36.6" y="30.1" width="11.6" height="2.09" rx="1" ry="1"/><rect class="cls-1" x="50.3" y="30.1" width="21.7" height="2.09" rx="1" ry="1"/><rect class="cls-5" x="363.5" y="324.2" width="19.3" height="2.09" rx="1" ry="1" transform="translate(432.9 385.8) rotate(180)"/><rect class="cls-2" x="350" y="324.2" width="9.9" height="2.09" rx="1" ry="1" transform="translate(396.5 385.8) rotate(180)"/><rect class="cls-5" x="36.6" y="69.4" width="24.1" height="2.09" rx="1" ry="1"/><rect class="cls-2" x="64.3" y="69.4" width="15.1" height="2.09" rx="1" ry="1"/><rect class="cls-1" x="36.6" y="64.5" width="11.6" height="2.09" rx="1" ry="1"/><rect class="cls-2" x="50.3" y="64.5" width="28.7" height="2.09" rx="1" ry="1"/><rect class="cls-2" x="56.1" y="54.7" width="23.2" height="2.09" rx="1" ry="1"/><rect class="cls-1" x="36.6" y="54.7" width="15.6" height="2.09" rx="1" ry="1"/><rect class="cls-1" x="56.1" y="74.3" width="19.3" height="2.09" rx="1" ry="1"/><rect class="cls-2" x="36.6" y="74.3" width="15.6" height="2.09" rx="1" ry="1"/><rect class="cls-5" x="350" y="314.4" width="21.7" height="2.09" rx="1" ry="1" transform="translate(408.3 366.2) rotate(180)"/><rect class="cls-1" x="375.6" y="314.4" width="8.1" height="2.09" rx="1" ry="1" transform="translate(445.9 366.2) rotate(180)"/><rect class="cls-2" x="350" y="309.5" width="11.6" height="2.09" rx="1" ry="1" transform="translate(398.2 356.4) rotate(180)"/><rect class="cls-1" x="364.6" y="309.5" width="24.7" height="2.09" rx="1" ry="1" transform="translate(440.6 356.4) rotate(180)"/><rect class="cls-2" x="78.4" width="1.2" height="92.01"/><g id="_Group_6" data-name="&lt;Group&gt;"><rect id="_Rectangle_2" data-name="&lt;Rectangle&gt;" class="cls-4" x="79" y="23.5" width="44.5" height="27.03"/><path id="_Compound_Path_3" data-name="&lt;Compound Path&gt;" class="cls-2" d="M436.9,315.7H392.4a0.5,0.5,0,0,1-.6-0.5v-27a0.5,0.5,0,0,1,.6-0.5h44.5a0.5,0.5,0,0,1,.6.5v27A0.5,0.5,0,0,1,436.9,315.7Zm-43.9-1h43.4v-26H393v26Z" transform="translate(-313.4 -264.6)"/></g><g id="_Group_7" data-name="&lt;Group&gt;"><path id="_Path_6" data-name="&lt;Path&gt;" class="cls-2" d="M417.5,323.7H392.8a0.5,0.5,0,1,1,0-1h24.6A0.5,0.5,0,1,1,417.5,323.7Z" transform="translate(-313.4 -264.6)"/></g><g id="_Group_8" data-name="&lt;Group&gt;"><path id="_Path_7" data-name="&lt;Path&gt;" class="cls-2" d="M417.5,333H392.8a0.5,0.5,0,1,1,0-1h24.6A0.5,0.5,0,1,1,417.5,333Z" transform="translate(-313.4 -264.6)"/></g><g id="_Group_9" data-name="&lt;Group&gt;"><path id="_Path_8" data-name="&lt;Path&gt;" class="cls-2" d="M414.3,328.3H392.7a0.5,0.5,0,0,1,0-1h21.6A0.5,0.5,0,0,1,414.3,328.3Z" transform="translate(-313.4 -264.6)"/></g><path class="cls-1" d="M398.4,340.1h-5.6v3.2h5.6A1.6,1.6,0,0,0,398.4,340.1Z" transform="translate(-313.4 -264.6)"/></svg>