<svg id="Layer_1" data-name="Layer 1" xmlns="http://www.w3.org/2000/svg" viewBox="0 0 97 84.9"><defs><style>.cls-1{fill:#fe3035;}.cls-2{fill:#bf0816;}.cls-3{opacity:0.15;}.cls-4{fill:#fff;}.cls-5{fill:#ffabb5;}</style></defs><title>Product_Strategy</title><text x="-227.6" y="-251"/><rect class="cls-1" x="44.7" y="59.2" width="8" height="21.08"/><path class="cls-2" d="M280.8,331.7h-9V309.6h9v22.1Zm-8-1h7V310.6h-7v20.1Z" transform="translate(-227.6 -251)"/><path class="cls-1" d="M264.7,312.5l-7.6-2.6-8.8,25.5h3.3c2.6,0,5.5-1.1,6.4-3.7Z" transform="translate(-227.6 -251)"/><path class="cls-2" d="M251.6,335.9h-4l9.2-26.7,8.5,2.9-6.8,19.7C257.5,334.8,254.2,335.9,251.6,335.9Zm-2.6-1h2.6c2.2,0,5-.9,5.9-3.4l6.5-18.7-6.6-2.3Z" transform="translate(-227.6 -251)"/><path class="cls-1" d="M287.9,312.5l7.6-2.6,8.8,25.5H301c-2.6,0-5.5-1.1-6.4-3.7Z" transform="translate(-227.6 -251)"/><path class="cls-2" d="M305,335.9h-4c-2.5,0-5.8-1.1-6.9-4.1l-6.8-19.7,8.5-2.9Zm-16.4-23.1,6.5,18.7c0.9,2.5,3.7,3.4,5.9,3.4h2.6l-8.4-24.4Z" transform="translate(-227.6 -251)"/><g class="cls-3"><polygon points="36.5 64.8 27 64.8 28.2 61.2 37.7 61.2 36.5 64.8"/></g><g class="cls-3"><polygon points="61 64.8 70.4 64.8 69.3 61.2 59.7 61.2 61 64.8"/></g><g class="cls-3"><rect x="44.2" y="61.2" width="9" height="3.58"/></g><rect class="cls-4" x="5.3" y="3.6" width="86.3" height="56.71" rx="2" ry="2"/><path class="cls-2" d="M317.2,311.8H234.9a2.5,2.5,0,0,1-2.5-2.5V256.6a2.5,2.5,0,0,1,2.5-2.5h82.3a2.5,2.5,0,0,1,2.5,2.5v52.7A2.5,2.5,0,0,1,317.2,311.8Zm-82.3-56.7a1.5,1.5,0,0,0-1.5,1.5v52.7a1.5,1.5,0,0,0,1.5,1.5h82.3a1.5,1.5,0,0,0,1.5-1.5V256.6a1.5,1.5,0,0,0-1.5-1.5H234.9Z" transform="translate(-227.6 -251)"/><rect class="cls-1" x="0.5" y="55.7" width="96" height="6.67" rx="2" ry="2"/><path class="cls-2" d="M322.1,313.8h-92a2.5,2.5,0,0,1-2.5-2.5v-2.7a2.5,2.5,0,0,1,2.5-2.5h92a2.5,2.5,0,0,1,2.5,2.5v2.7A2.5,2.5,0,0,1,322.1,313.8Zm-92-6.7a1.5,1.5,0,0,0-1.5,1.5v2.7a1.5,1.5,0,0,0,1.5,1.5h92a1.5,1.5,0,0,0,1.5-1.5v-2.7a1.5,1.5,0,0,0-1.5-1.5h-92Z" transform="translate(-227.6 -251)"/><circle class="cls-1" cx="67.6" cy="32.2" r="13.7"/><path class="cls-2" d="M295.2,297.3a14.2,14.2,0,1,1,14.2-14.2A14.2,14.2,0,0,1,295.2,297.3Zm0-27.3a13.2,13.2,0,1,0,13.2,13.2A13.2,13.2,0,0,0,295.2,270Z" transform="translate(-227.6 -251)"/><path class="cls-5" d="M308,278.6a13.7,13.7,0,0,0-12.9-9.1v13.7Z" transform="translate(-227.6 -251)"/><path class="cls-2" d="M294.7,283.8V269h0.5a14.2,14.2,0,0,1,13.4,9.4l0.2,0.5Zm1-13.9v12.4l11.7-4.2A13.2,13.2,0,0,0,295.7,270Z" transform="translate(-227.6 -251)"/><path class="cls-2" d="M307.7,277.6l0.4,0.9Z" transform="translate(-227.6 -251)"/><path class="cls-2" d="M308,278.6h0Z" transform="translate(-227.6 -251)"/><rect class="cls-2" x="253.3" y="285.6" width="17.8" height="1.52" rx="0.8" ry="0.8" transform="translate(296.7 321.8) rotate(-180)"/><rect class="cls-1" x="243.4" y="285.6" width="8.8" height="1.52" rx="0.8" ry="0.8" transform="translate(268.1 321.8) rotate(180)"/><rect class="cls-2" x="15.8" y="28.7" width="17.6" height="1.52" rx="0.8" ry="0.8"/><rect class="cls-1" x="34.7" y="28.7" width="7.1" height="1.52" rx="0.8" ry="0.8"/><rect class="cls-1" x="15.8" y="22.8" width="8.4" height="1.52" rx="0.8" ry="0.8"/><rect class="cls-2" x="25.8" y="22.8" width="12.4" height="1.52" rx="0.8" ry="0.8"/><rect class="cls-2" x="243.4" y="291.5" width="8.4" height="1.52" rx="0.8" ry="0.8" transform="translate(267.7 333.6) rotate(180)"/><rect class="cls-1" x="254.1" y="291.5" width="19" height="1.52" rx="0.8" ry="0.8" transform="translate(299.6 333.6) rotate(180)"/><g class="cls-3"><rect x="4.8" y="9" width="87.3" height="2.71"/></g><rect class="cls-1" x="0.5" y="0.5" width="96" height="9" rx="2" ry="2"/><path class="cls-2" d="M322.1,261h-92a2.5,2.5,0,0,1-2.5-2.5v-5a2.5,2.5,0,0,1,2.5-2.5h92a2.5,2.5,0,0,1,2.5,2.5v5A2.5,2.5,0,0,1,322.1,261Zm-92-9a1.5,1.5,0,0,0-1.5,1.5v5a1.5,1.5,0,0,0,1.5,1.5h92a1.5,1.5,0,0,0,1.5-1.5v-5a1.5,1.5,0,0,0-1.5-1.5h-92Z" transform="translate(-227.6 -251)"/></svg>